<?xml version="1.0" encoding="UTF-8"?>
<svg version="1.1" viewBox="-13.885 139.49 334.62 250.76" xmlns="http://www.w3.org/2000/svg">
 <defs>
  <clipPath id="clippath1" transform="">
   <path d="m0 841.89h595.28v-841.89h-595.28z" fill="none"/>
  </clipPath>
 </defs>
 <path d="m156.8 245.5 1.778 0.073c0.239-0.954 0.783-2.768 1.63-5.438 0.846-2.688 1.445-4.46 1.798-5.317-4.105 4.45-7.279 7.13-9.522 8.036-1.228 0.485-2.476 0.728-3.746 0.728-2.089 0-3.703-0.794-4.846-2.379-1.158-1.586-1.735-3.805-1.735-6.652 0-4.079 1.644-9.525 4.93-16.34 3.274-6.829 7.005-12.17 11.195-16.023l2.37 2.525c-8.776 10.828-13.163 19.867-13.163 27.118 0 4.208 1.446 6.313 4.339 6.313 2.877 0 5.677-1.814 8.401-5.439 2.736-3.624 5.565-9.242 8.486-16.849 1.185-3.124 2.095-5.188 2.729-6.191 0.62-0.988 1.228-1.481 1.82-1.481 0.593 0 1.058 0.202 1.397 0.607 0.339 0.406 0.508 0.947 0.508 1.627 0 2.896-1.82 7.203-5.46 12.916-2.524 5.99-5.072 13.419-7.639 22.287 1.862 0.146 3.836 0.673 5.925 1.579l-0.593 2.306-6.285-1.02c-2.327 6.524-5.142 11.404-8.443 14.64-3.286 3.253-7.223 4.88-11.808 4.88-2.37 0-4.36-0.736-5.968-2.209-1.593-1.474-2.391-3.326-2.391-5.56 0-4.079 2.391-7.551 7.174-10.415 4.782-2.882 10.49-4.322 17.119-4.322zm-13.268 17.796c3.202 0 6.038-1.481 8.507-4.443 2.47-2.962 4.296-6.441 5.481-10.44-5.305 0-9.749 1.037-13.332 3.108-3.597 2.056-5.396 4.557-5.396 7.502 0 1.263 0.444 2.289 1.333 3.083s2.025 1.19 3.407 1.19zm68.084-26.026 1.227 1.359c-2.243 4.63-4.825 6.944-7.745 6.944-1.185 0-2.11-0.381-2.772-1.141-0.65-0.746-0.974-1.741-0.974-2.986 0-1.246 0.656-3.382 1.968-6.41 1.297-3.042 1.989-5.358 2.074-6.943 0.028-0.729-0.163-1.319-0.571-1.773-0.411-0.454-0.974-0.68-1.693-0.68-0.707 0-1.427 0.195-2.159 0.583-0.734 0.389-1.447 1.013-2.137 1.87-0.692 0.857-1.321 1.699-1.883 2.525-0.58 0.808-1.215 1.959-1.905 3.447-0.692 1.505-1.278 2.751-1.756 3.739-0.819 1.862-2.004 4.654-3.556 8.376l-3.555-1.433c0-0.128 0.656-2.687 1.968-7.671 1.298-4.985 1.947-7.956 1.947-8.911 0-0.954-0.199-1.65-0.592-2.087-0.396-0.421-0.889-0.632-1.482-0.632-1.777 0-4.232 2.532-7.364 7.599-3.147 5.082-5.157 9.413-6.031 12.989l-3.365-1.287c0.197-2.396 1.122-6.708 2.772-12.94 1.664-6.232 3.069-10.481 4.212-12.746l2.666 1.068c-1.227 3.14-2.074 5.786-2.539 7.939-0.481 2.154-0.898 4.451-1.249 6.895 3.399-5.584 6.243-9.492 8.528-11.726 2.298-2.251 4.372-3.375 6.222-3.375 2.016 0 3.026 1.158 3.026 3.472 0 0.906-0.347 2.695-1.037 5.366-0.692 2.67-1.236 4.782-1.63 6.336 5.445-10.068 10.327-15.101 14.644-15.101 1.058 0 1.905 0.372 2.54 1.117s0.952 1.852 0.952 3.326-0.741 3.909-2.222 7.308-2.222 5.542-2.222 6.433c0 0.892 0.155 1.537 0.466 1.943 0.323 0.405 0.719 0.607 1.185 0.607 1.028 0 2.376-1.134 4.042-3.399zm12.663-3.666c3.005-5.164 5.614-8.692 7.83-10.586 2.215-1.876 4.147-2.816 5.798-2.816 1.665 0 2.948 0.583 3.851 1.748 0.917 1.149 1.376 2.605 1.376 4.37 0 4.904-1.53 9.428-4.592 13.572s-6.512 6.215-10.348 6.215c-1.693 0-3.033-0.34-4.021-1.02l1.418-2.913c2.088 0.308 3.371 0.461 3.851 0.461 2.131 0 4.127-1.425 5.989-4.273 1.847-2.865 2.772-5.785 2.772-8.764 0-1.134-0.281-2.081-0.846-2.841-0.578-0.745-1.319-1.117-2.222-1.117-2.174 0-4.635 2.203-7.386 6.604-2.751 4.387-5.318 9.833-7.703 16.339-2.385 6.507-4.465 13.434-6.242 20.783l-3.555-1.433c0.069-0.274 0.81-2.622 2.222-7.041 1.396-4.418 2.765-8.805 4.105-13.158 3.71-11.962 5.565-18.508 5.565-19.641 0-2.897-0.507-5.529-1.523-7.891l2.962-1.699c1.213 1.959 1.82 4.013 1.82 6.166 0 2.154-0.374 5.13-1.121 8.935zm35.486-6.604 3.089-1.092c1.029 1.959 1.545 4.11 1.545 6.458 0 3.673-1.109 6.95-3.322 9.832-2.216 2.882-4.825 4.322-7.83 4.322-2.285 0-4.072-0.76-5.354-2.282-1.284-1.523-1.926-3.618-1.926-6.288 0-4.305 1.461-8.165 4.381-11.581 2.92-3.431 6.2-5.147 9.84-5.147 0.677 0 1.149 0.024 1.418 0.073l0.19 2.233c-3.161 0-5.792 1.044-7.893 3.132-2.089 2.088-3.132 4.766-3.132 8.036 0 1.943 0.415 3.513 1.249 4.71 0.816 1.197 2.031 1.797 3.639 1.797 1.594 0 2.864-0.809 3.81-2.428 0.958-1.634 1.438-3.552 1.438-5.754s-0.38-4.207-1.142-6.021z" fill="#333" style="white-space:pre"/>
 <path d="m152.84 276.32 2.667 1.505c-2.652 5.941-5.397 13.579-8.232 22.919 1.82 0 3.062 0.089 3.724 0.267l-0.233 3.86c-0.831 0.323-2.454 0.485-4.867 0.485-0.819 2.622-1.312 4.752-1.481 6.386-0.155 1.634-0.282 3.221-0.381 4.758-0.1 1.537-0.169 2.581-0.212 3.132h-3.301c-0.197-0.777-0.296-1.571-0.296-2.379 0-2.817 0.649-6.781 1.947-11.897-2.37 0-5.968 0.316-10.793 0.947-0.197 0.729-0.692 2.081-1.481 4.055s-1.566 3.683-2.328 5.122c-0.777 1.457-1.813 3.043-3.111 4.759-1.312 1.731-2.672 3.18-4.084 4.346-4.078 3.367-8.026 5.05-11.85 5.05-1.581 0-2.885-0.566-3.915-1.7-1.031-1.134-1.545-2.566-1.545-4.297 0-4.353 2.18-8.303 6.539-11.848 4.374-3.561 10.433-6.409 18.178-8.546 2.92-9.791 7.025-16.769 12.316-20.928-5.729 0.081-10.448 1.19-14.157 3.327-3.71 2.136-5.566 4.855-5.566 8.157 0 1.037 0.133 1.935 0.402 2.695 0.282 0.745 0.938 1.911 1.968 3.496l-2.031 2.161c-1.736-1.263-3.054-2.8-3.958-4.613-0.916-1.814-1.375-3.562-1.375-5.244 0-2.8 1.306-5.39 3.915-7.769 2.609-2.38 5.847-4.217 9.713-5.511 3.879-1.294 7.815-1.943 11.808-1.943 2.004 0 3.393 0.17 4.169 0.51 0.777 0.34 1.164 0.979 1.164 1.918 0 0.923-0.578 1.789-1.735 2.598-4.937 3.545-8.903 10.253-11.893 20.127 2.328-0.454 5.94-0.947 10.835-1.481 1.889-6.344 3.422-11.047 4.592-14.106s2.8-6.499 4.888-10.318zm-39.551 48.605c1.439 0 3.138-0.736 5.1-2.21 1.947-1.473 3.583-3.399 4.909-5.778 1.327-2.379 2.462-5.649 3.407-9.808-5.248 0.988-9.48 2.743-12.697 5.268-3.231 2.508-4.846 5.349-4.846 8.522 0 1.279 0.333 2.265 0.995 2.962 0.65 0.696 1.693 1.044 3.132 1.044zm62.359-13.305 1.355 1.214c-1.213 1.942-2.893 3.562-5.037 4.856-2.131 1.294-4.205 1.942-6.221 1.942-2.004 0-3.619-0.68-4.846-2.039-1.228-1.36-1.842-3.149-1.842-5.366 0-4.176 1.926-8.279 5.778-12.309 3.851-4.03 7.751-6.045 11.702-6.045 2.609 0 3.915 1.172 3.915 3.52 0 2.46-1.376 4.936-4.127 7.429-2.736 2.494-6.596 4.759-11.575 6.798 0.353 1.037 0.904 1.845 1.651 2.428 0.747 0.6 1.517 0.898 2.306 0.898 1.708 0 4.021-1.109 6.941-3.326zm-11.194-2.039c3.201-1.28 5.946-2.865 8.232-4.759 2.285-1.91 3.428-3.658 3.428-5.244 0-0.582-0.197-1.1-0.593-1.554-0.395-0.454-0.846-0.679-1.354-0.679-1.862 0-3.866 1.318-6.01 3.957-2.159 2.654-3.392 5.414-3.703 8.279zm25.472-11.29c-0.946 5.164-1.439 8.928-1.481 11.29 0 3.205 0.81 4.807 2.433 4.807 1.736 0 3.295-0.857 4.677-2.574 1.382-1.716 2.074-3.731 2.074-6.045s-0.747-3.472-2.243-3.472c-0.438 0-1.391 0.292-2.857 0.874l-0.698-2.039c2.524-2.039 4.513-3.059 5.967-3.059 2.736 0 4.106 1.571 4.106 4.71 0 3.659-1.334 7.381-4 11.168s-5.466 5.681-8.401 5.681c-3.189 0-4.783-2.629-4.783-7.89 0-2.494 0.608-6.611 1.82-12.358l-4.782 2.039-0.064-1.651c0.396-0.259 2.195-1.068 5.396-2.427 1.34-9.063 3.196-15.424 5.566-19.083 2.37-3.642 5.369-5.463 8.994-5.463 1.665 0 2.99 0.607 3.978 1.821 0.988 1.231 1.481 2.816 1.481 4.759 0 3.901-1.559 7.543-4.676 10.925-3.118 3.367-7.286 6.028-12.507 7.987zm0.36-2.039c3.428-1.813 6.27-3.989 8.528-6.531s3.386-4.855 3.386-6.943c0-1.086-0.282-1.967-0.847-2.647-0.55-0.679-1.242-1.019-2.074-1.019-1.65 0-3.286 1.335-4.909 4.006-1.623 2.687-2.984 7.065-4.084 13.134zm35.249 15.368 1.354 1.214c-1.212 1.942-2.893 3.562-5.036 4.856-2.131 1.294-4.205 1.942-6.222 1.942-2.004 0-3.619-0.68-4.846-2.039-1.227-1.36-1.841-3.149-1.841-5.366 0-4.176 1.926-8.279 5.777-12.309 3.852-4.03 7.752-6.045 11.703-6.045 2.609 0 3.914 1.172 3.914 3.52 0 2.46-1.375 4.936-4.126 7.429-2.736 2.494-6.596 4.759-11.576 6.798 0.354 1.037 0.904 1.845 1.651 2.428 0.747 0.6 1.517 0.898 2.307 0.898 1.707 0 4.02-1.109 6.941-3.326zm-11.195-2.039c3.202-1.28 5.947-2.865 8.232-4.759 2.286-1.91 3.428-3.658 3.428-5.244 0-0.582-0.196-1.1-0.592-1.554s-0.847-0.679-1.355-0.679c-1.862 0-3.866 1.318-6.009 3.957-2.159 2.654-3.393 5.414-3.704 8.279zm32.409 0.388 1.418 1.36c-0.944 2.493-2.467 4.491-4.571 5.997-2.086 1.488-4.111 2.233-6.073 2.233-1.947 0-3.562-0.704-4.846-2.112-1.283-1.391-1.926-3.319-1.926-5.778 0-2.445 0.925-5.091 2.772-7.939 1.863-2.865 4.269-5.22 7.216-7.065 2.936-1.862 5.828-2.792 8.677-2.792 0.395 0 0.988 0.041 1.777 0.121l-0.19 2.671c-4.345 0.226-7.948 1.741-10.814 4.54-2.863 2.816-4.296 5.81-4.296 8.983 0 1.311 0.36 2.372 1.08 3.18 0.706 0.826 1.629 1.238 2.772 1.238 1.82 0 4.156-1.546 7.004-4.637zm44.501 0.826 1.228 1.359c-2.244 4.63-4.825 6.944-7.746 6.944-1.185 0-2.107-0.381-2.772-1.141-0.647-0.746-0.973-1.741-0.973-2.986 0-1.246 0.656-3.382 1.968-6.41 1.299-3.042 1.989-5.358 2.074-6.943 0.029-0.729-0.161-1.319-0.572-1.773-0.408-0.454-0.973-0.68-1.693-0.68-0.704 0-1.424 0.195-2.158 0.583-0.732 0.389-1.445 1.013-2.137 1.87-0.69 0.857-1.319 1.699-1.884 2.525-0.578 0.808-1.212 1.959-1.904 3.447-0.69 1.505-1.276 2.751-1.757 3.739-0.817 1.862-2.002 4.654-3.555 8.376l-3.555-1.433c0-0.128 0.656-2.687 1.968-7.671 1.299-4.985 1.947-7.956 1.947-8.911 0-0.954-0.197-1.65-0.593-2.088-0.393-0.42-0.889-0.631-1.481-0.631-1.778 0-4.232 2.532-7.364 7.599-3.145 5.082-5.155 9.413-6.031 12.989l-3.365-1.287c0.199-2.396 1.121-6.708 2.772-12.94 1.666-6.232 3.069-10.481 4.211-12.746l2.667 1.068c-1.228 3.14-2.074 5.786-2.54 7.939-0.478 2.154-0.895 4.451-1.248 6.895 3.4-5.584 6.242-9.492 8.528-11.726 2.3-2.251 4.374-3.375 6.221-3.375 2.019 0 3.027 1.158 3.027 3.472 0 0.906-0.345 2.695-1.037 5.366-0.69 2.67-1.234 4.782-1.63 6.336 5.447-10.068 10.327-15.101 14.644-15.101 1.058 0 1.905 0.372 2.539 1.117 0.635 0.745 0.953 1.852 0.953 3.326s-0.741 3.909-2.222 7.308c-1.482 3.399-2.222 5.542-2.222 6.433s0.156 1.537 0.465 1.943c0.326 0.405 0.72 0.607 1.185 0.607 1.031 0 2.379-1.134 4.042-3.399zm16.348-6.992c2.171-0.097 3.259 0.922 3.259 3.059 0 2.799-1.312 5.576-3.937 8.327-2.638 2.736-5.277 4.103-7.914 4.103-2.497 0-3.746-1.925-3.746-5.778 0-3.042 0.663-6.815 1.99-11.314 1.324-4.515 2.425-7.703 3.301-9.565l2.666 1.019c-1.03 3.448-2.082 7.665-3.153 12.649l0.783-0.412c2.637-1.392 4.888-2.088 6.751-2.088zm-0.953 6.992c0.239-0.631 0.36-1.221 0.36-1.773-0.127-1.213-1.058-1.82-2.793-1.82-0.834 0-2.37 0.405-4.613 1.213-0.326 1.36-0.487 2.574-0.487 3.642s0.233 1.918 0.698 2.549c0.451 0.632 1.058 0.947 1.82 0.947 0.775 0 1.699-0.461 2.772-1.384 1.058-0.939 1.805-2.063 2.243-3.374zm9.904-0.826-1.778 8.983-3.385-0.607c0.789-5.487 1.784-10.585 2.983-15.295 1.213-4.71 2.37-8.085 3.471-10.124l2.899 0.388c-1.411 4.225-2.808 9.777-4.19 16.655z" fill="#333" style="white-space:pre"/>
 <path d="m-13.885 139.49h163.84v250.76h-163.84z" fill="none"/>
 <g fill="#333">
  <path d="m79.417 233.9 2.645 2.748-0.53-2.226s3.25 2.01 6.301 2.226c-1.26-1.077-2.918-2.369-2.918-2.369s4.51 2.369 9.353 1.794c-1.592-0.646-3.35-0.43-4.876-2.727 3.582 1.723 9.718 1.148 9.718 1.148s-4.577-0.789-6.169-1.866c4.179 0.431 7.629-0.718 8.623-1.795-2.719 0.574-5.041 0.215-6.699 0 3.781 0 6.633-1.22 8.424-3.517-1.459 0.646-4.046 2.368-8.822 1.579-1.46-0.359-1.924-1.579-1.924-1.579s-1.393-2.01-2.72-2.298c1.194 1.508 2.919 3.231 1.791 5.025-1.084 1.725-4.495 3.847-11.942 3.246-0.308-0.025-0.478 0.38-0.255 0.611" clip-path="url(#clippath1)"/>
  <path d="m99.176 254.46s1.394 0.574 2.455-0.431 5.041-6.174 5.041-6.174 2.322-2.943 2.256 0.646c-0.067 3.59-1.858 3.805-1.858 3.805s4.444-0.215 3.317 3.661c-1.128 3.877-5.514 1.723-5.514 1.723s3.126-0.574 2.728-1.651-2.455-2.01-4.312-0.861c-1.857 1.148-2.653 0.789-4.113-0.718" clip-path="url(#clippath1)"/>
  <path d="m76.231 226.44c-0.027 0.079 0.078 0.13 0.114 0.056 0.776-1.594 2.771-4.673 6.716-5.08 5.355-0.552 7.284 0.116 7.91 0.184 0.743 0.08 2.567-1.141 1.102-2.211-1.51-1.102-8.376-0.678-9.932-0.59-0.212 0.012-0.412 0.094-0.578 0.236-0.927 0.794-4.078 3.695-5.332 7.405" clip-path="url(#clippath1)"/>
  <path d="m106.41 238.66s-2.919 1.364-3.383 2.512c-0.465 1.149 0.464 1.867 0.995 1.508 0.53-0.359-0.796-1.292 2.388-4.02" clip-path="url(#clippath1)"/>
  <path d="m73.296 264.26c-0.285-0.117-0.534 0.253-0.334 0.502 0.383 0.479 0.854 1.3 1.405 2.685 1.659 4.164 3.317 11.342 1.194 18.449-2.122 7.107-4.179 13.209-4.179 13.209l11.741-21.321s1.99-4.307 8.624-6.245c2.123-0.718 15.058-5.169 15.92-7.107-1.255 0.572-25.318 9.53-33.47 0.462-0.237-0.264-0.483-0.462-0.901-0.634" clip-path="url(#clippath1)"/>
  <path d="m70.719 203.2s-6.567 20.244 6.169 30.581c12.736 10.338-2.786 30.151-14.527 40.703-11.742 10.553-20.1 14.644-21.135 26.204-0.439 4.907 3.622 20.529 15.165 16.868-2.588 2.153-12.038 4.739-19.105-2.369 4.219 5.695 9.752 13.137 21.095 13.137-5.374 1.802-30.05 3.445-29.453-19.598s22.686-32.734 22.686-32.734-36.616 8.829-28.457 50.178c-6.169-2.8-7.554-25.412 0.597-39.841-8.358 4.307-10.348 27.35-10.348 27.35s-11.741-29.719 4.179-44.795c15.92-15.074 36.019-11.7 40.199-32.231-9.088 10.696-22.834 17.042-30.05 20.172-6.318 2.74-17.645 8.841-20.298 27.35-1.393-18.509-0.398-47.378 27.263-54.701-10.348-2.936-25.472 17.241-25.472 17.241s18.375-43.515 61.492-43.515" clip-path="url(#clippath1)"/>
  <path d="m60.636 279.72s-6.634 19.67 8.889 28.141c15.522 8.47 5.24 22.397 5.24 22.397s15.075-12.417 1.393-22.254c-9.685-6.963-16.451-11.916-15.522-28.284" clip-path="url(#clippath1)"/>
  <path d="m60.918 300.69s-3.317 9.835 4.444 14.07c7.459 4.07 2.923 10.789 2.621 11.199 0 0 7.537-6.209 0.696-11.127-4.842-3.482-8.225-5.958-7.761-14.142" clip-path="url(#clippath1)"/>
 </g>
</svg>
