<svg id="18f216cc-8d22-4f63-b3b0-6d2860aae10e" data-name="Layer 1" width="930.29" height="802.11" viewBox="68.039 -80.375 1030.452 898.373" xmlns="http://www.w3.org/2000/svg">
  <title>makeup artist</title>
  <ellipse cx="628.231" cy="740.928" rx="453.294" ry="77.07" opacity="0.1" style=""></ellipse>
  <path d="M 535.792 591.777 C 612.72 554.275 700.596 542.302 786.472 558.388 C 908.17 581.174 1061.105 572.24 1090.689 396.448 C 1141.28 96.207 929.262 16.963 929.262 16.963 C 929.262 16.963 788.268 6.561 704.896 -33.04 C 586.468 -89.289 451.103 -96.472 332.075 -48.864 C 255.96 -18.451 193.285 23.926 182.566 82.062 C 152.623 244.709 201.8 334.313 109.805 387.408 C 17.81 440.501 96.426 586.27 166.984 581.228 C 237.54 576.184 396.882 520.823 458.984 584.941 C 481.057 607.653 508.964 604.858 535.792 591.777 Z" opacity="0.1" style=""></path>
  <path d="M744.64,377.46S698,456.09,687.07,466.53c0,0-46.64,48.4-22.93,45,1.74-.25,35.87-29.1,37.86-33.82s66.53-88.56,66.53-88.56l-9.2-8.47Z" fill="#f8bdc5" transform="translate(-134.85 -48.95)"></path>
  <rect x="873.32" y="566.19" width="14.79" height="235.44" transform="translate(1626.59 1318.88) rotate(-180)" fill="#40414d"></rect>
  <rect x="725.44" y="566.19" width="14.79" height="235.44" transform="translate(1330.83 1318.88) rotate(-180)" fill="#40414d"></rect>
  <path d="M713.61,544c0,9,61.47,16.27,99.06,16.27S879.24,553,879.24,544s-29-16.27-66.58-16.27S713.61,535,713.61,544Z" fill="#f6c6cd" transform="translate(-134.85 -48.95)"></path>
  <path d="M731.61,544H889.45A10.5,10.5,0,0,1,900,554.5v16.13a0,0,0,0,1,0,0H713.61a0,0,0,0,1,0,0V562A18,18,0,0,1,731.61,544Z" fill="#40414d" transform="translate(1478.71 1065.68) rotate(-180)"></path>
  <path d="M906.69,385.69h8.06a0,0,0,0,1,0,0V563.63a7,7,0,0,1-7,7H901a7,7,0,0,1-7-7V398.35a12.66,12.66,0,0,1,12.66-12.66Z" fill="#40414d" transform="translate(1546.47 1094.76) rotate(-167.28)"></path>
  <path d="M702,634.23s14.93,18.67,8.71,26.14-37.28,21.75-47.29,21.16c-10.58-.62-46,1.24-47.29-14.93,0,0-2.49-7.47,29.87-8.71S668.36,623,668.36,623Z" fill="#594c76" transform="translate(-134.85 -48.95)"></path>
  <path d="M879.94,477.41s14.93,51-29.87,59.74l-48.54-2.49s-68.45-13.69-87.12-3.73c0,0-7.47,1.24-5,11.2s-3.73,77.16-3.73,77.16v22.4s-42.32,0-47.29-5c0,0,3.73-19.91,0-36.09s6.22-67.21,6.22-67.21l1-30.66a21.36,21.36,0,0,1,11.28-18.42,16.68,16.68,0,0,1,7.64-1.94s84.63-13.69,114.5-11.2S879.94,477.41,879.94,477.41Z" opacity="0.1" transform="translate(-134.85 -48.95)"></path>
  <path d="M879.94,476.16s14.93,51-29.87,59.74l-48.54-2.49s-68.45-13.69-87.12-3.73c0,0-7.47,1.24-5,11.2S705.69,618,705.69,618v22.4s-42.32,0-47.29-5c0,0,3.73-19.91,0-36.09s6.22-67.21,6.22-67.21l1-30.66a21.36,21.36,0,0,1,11.28-18.42,16.68,16.68,0,0,1,7.64-1.94s84.63-13.69,114.5-11.2S879.94,476.16,879.94,476.16Z" fill="#8b9cd1" transform="translate(-134.85 -48.95)"></path>
  <path d="M796.55,313.13s-22.4,26.14-24.89,34.85-29.87,31.11-29.87,31.11S761.7,394,758,401.49,784.1,376.6,784.1,376.6l34.85-51Z" fill="#f50057" transform="translate(-134.85 -48.95)"></path>
  <path d="M796.55,313.13s-22.4,26.14-24.89,34.85-29.87,31.11-29.87,31.11S761.7,394,758,401.49,784.1,376.6,784.1,376.6l34.85-51Z" opacity="0.1" transform="translate(-134.85 -48.95)"></path>
  <path d="M781.61,283.26s11.2,36.09,11.2,49.78,47.29-3.73,46-11.2-27.38-34.85-28.63-46S781.61,283.26,781.61,283.26Z" fill="#f8bdc5" transform="translate(-134.85 -48.95)"></path>
  <path d="M819,308.15s43.56-11.2,49.78,52.27-5,70.94,13.69,109.52-126.95,5-126.95,5,7.47-8.71,31.11-5l11.2-33.6s3.73-14.93-17.42-14.93-11.2-43.56-11.2-43.56,11.2-37.34,17.42-41.07S804,310.64,819,308.15Z" opacity="0.1" transform="translate(-134.85 -48.95)"></path>
  <path d="M819,305.66s43.56-11.2,49.78,52.27-5,70.94,13.69,109.52-126.95,5-126.95,5,7.47-8.71,31.11-5l11.2-33.6s3.73-14.93-17.42-14.93-11.2-43.56-11.2-43.56,11.2-37.34,17.42-41.07S804,308.15,819,305.66Z" fill="#f50057" transform="translate(-134.85 -48.95)"></path>
  <path d="M765.64,394.46S719,473.09,708.07,483.53c0,0-46.64,48.4-22.93,45,1.74-.25,35.87-29.1,37.86-33.82s66.53-88.56,66.53-88.56l-9.2-8.47Z" fill="#f8bdc5" transform="translate(-134.85 -48.95)"></path>
  <path d="M845.09,364.15l-66,59.74S766.68,399,762.95,399s44.8-73.43,44.8-73.43,12.45-14.93,19.91-7.47S857.53,320.59,845.09,364.15Z" opacity="0.1" transform="translate(-134.85 -48.95)"></path>
  <path d="M846.33,361.66l-66,59.74s-12.45-24.89-16.18-24.89S809,323.08,809,323.08s12.45-14.93,19.91-7.47S858.78,318.1,846.33,361.66Z" fill="#f50057" transform="translate(-134.85 -48.95)"></path>
  <circle cx="657.96" cy="215.64" r="41.07" fill="#f8bdc5"></circle>
  <path d="M772.84,251.09c-7.43,1-14.92-4.28-17.38-11.36s-.28-15.31,4.68-20.92,12.34-8.75,19.8-9.48c4.53-.44,9.36-.12,13.31-2.38,2.49-1.42,4.34-3.72,6.43-5.68,7.83-7.38,19.18-10.06,29.93-9.56s21.13,3.87,31.37,7.2c3.82,1.24,8.22,3.09,9.1,7,.67,2.94-1,5.85-1.53,8.8-1.76,9.39,7.29,17.11,15.74,21.58s18.41,9.17,20.76,18.44c2.11,8.31-2.92,16.5-6.2,24.42a62.9,62.9,0,0,0-1.51,43.54c2.4,7.18,6.12,14,7.58,21.39a36.9,36.9,0,0,1-3.66,24.35c-1.17,2.18-2.6,4.35-2.77,6.81a12.81,12.81,0,0,0,1.42,5.94,63.32,63.32,0,0,0,38.19,34.43c-2.67,4.84-8.5,6.86-13.88,8.13a127.81,127.81,0,0,1-28,3.38c-6.34.06-12.85-.39-18.64-3s-10.82-7.6-11.91-13.85c-.63-3.62.07-7.36-.38-11-1-8.2-7.59-14.63-10-22.53-2.31-7.55-3.65-8.7-2.76-16.55s.72-16.57-4.4-22.58c-5.36-6.3-14.78-7.7-22.86-5.91s-12.26-.74-19.64,3a151.84,151.84,0,0,1-40.94,13.92c3.86-10.22,8.71-21.49,18.83-25.62,2.9-1.18,6.26-1.81,8.23-4.24,3.14-3.88,1-10.1,3.71-14.28s9.16-4.37,12.87-7.85c3.15-3,3.73-7.91,2.51-12.05s-3.91-7.67-6.63-11q-3.61-4.49-7.39-8.84A33.26,33.26,0,0,1,791,256.5c-.85-2-.69-5.78-2.08-7.37C785.4,245.1,777.13,250.52,772.84,251.09Z" opacity="0.1" transform="translate(-134.85 -48.95)"></path>
  <path d="M774.35,250.18c-7.43,1-14.92-4.28-17.38-11.36s-.28-15.31,4.68-20.92,12.34-8.75,19.8-9.48c4.53-.44,9.36-.12,13.31-2.38,2.49-1.42,4.34-3.72,6.43-5.68,7.83-7.38,19.18-10.06,29.93-9.56s21.13,3.87,31.37,7.2c3.82,1.24,8.22,3.09,9.1,7,.67,2.94-1,5.85-1.53,8.8-1.76,9.39,7.29,17.11,15.74,21.58s18.41,9.17,20.76,18.44c2.11,8.31-2.92,16.5-6.2,24.42a62.9,62.9,0,0,0-1.51,43.54c2.4,7.18,6.12,14,7.58,21.39a36.9,36.9,0,0,1-3.66,24.35c-1.17,2.18-2.6,4.35-2.77,6.81a12.81,12.81,0,0,0,1.42,5.94,63.32,63.32,0,0,0,38.19,34.43c-2.67,4.84-8.5,6.86-13.88,8.13a127.81,127.81,0,0,1-28,3.38c-6.34.06-12.85-.39-18.64-3s-10.82-7.6-11.91-13.85c-.63-3.62.07-7.36-.38-11-1-8.2-7.59-14.63-10-22.53-2.31-7.55-3.65-8.7-2.76-16.55s.72-16.57-4.4-22.58c-5.36-6.3-14.78-7.7-22.86-5.91s-12.26-.74-19.64,3a151.84,151.84,0,0,1-40.94,13.92c3.86-10.22,8.71-21.49,18.83-25.62,2.9-1.18,6.26-1.81,8.23-4.24,3.14-3.88,1-10.1,3.71-14.28s9.16-4.37,12.87-7.85c3.15-3,3.73-7.91,2.51-12.05s-3.91-7.67-6.63-11q-3.61-4.49-7.39-8.84a33.26,33.26,0,0,1-5.74-8.23c-.85-2-.69-5.78-2.08-7.37C786.91,244.19,778.64,249.62,774.35,250.18Z" fill="#eb6475" transform="translate(-134.85 -48.95)"></path>
  <g opacity="0.1">
    <path d="M669.78,632.83a43,43,0,0,0-1.42-9.8l.63.21A43.34,43.34,0,0,1,669.78,632.83Z" transform="translate(-134.85 -48.95)" fill="#fff"></path>
    <path d="M663.38,679c10,.59,41.07-13.69,47.29-21.16a6.64,6.64,0,0,0,1.44-3.53,7.81,7.81,0,0,1-1.44,6c-6.22,7.47-37.28,21.75-47.29,21.16-10.58-.62-46,1.24-47.29-14.93a2,2,0,0,1,.17-1.31C619.11,680.17,653.07,678.42,663.38,679Z" transform="translate(-134.85 -48.95)" fill="#fff"></path>
  </g>
  <rect x="674.281" y="303.729" width="57.641" height="4.686" transform="matrix(0.986695, -0.162582, 0.20547, 0.979628, -218.916824, 43.324558)" fill="#40414d" style=""></rect>
  <path d="M 584.95 225.033 C 584.95 225.033 579.08 229.623 573.44 230.449 C 572.409 230.618 571.361 230.618 570.33 230.449 C 565.16 229.497 562.48 226.594 561.99 223.186 C 561.798 221.616 562.024 220.016 562.64 218.596 C 564.04 215.532 567.38 213.754 572.55 214.718 C 574.128 215.062 575.635 215.748 576.99 216.737 C 580.027 218.976 582.717 221.78 584.95 225.033 Z" fill="#40414d" style="" transform="matrix(0.940512, -0.339761, 0.339761, 0.940512, -41.489377, 208.068416)"></path>
  <path d="M 584.961 223.034 C 584.961 223.034 579.091 227.624 573.451 228.45 C 573.276 227.737 573.318 226.976 573.571 226.293 C 574.118 225.322 574.755 224.421 575.471 223.608 C 576.061 222.667 576.221 221.107 575.351 220.533 C 575.144 220.433 574.947 220.31 574.761 220.166 C 574.241 219.626 574.761 218.663 575.201 218.089 C 576.041 217.113 577.001 215.955 576.991 214.646 C 580.038 216.912 582.732 219.747 584.961 223.034 Z" fill="#f8bdc5" style="" transform="matrix(0.940512, -0.339761, 0.339761, 0.940512, -40.820611, 209.952965)"></path>
  <path d="M 133.051 393.244 C 130.956 383.013 139.046 373.459 149.953 373.283 L 228.047 284.432 L 247.544 308.256 L 167.954 390.948 C 167.284 403.893 152.203 411.29 140.81 404.263 C 136.752 401.761 133.948 397.777 133.051 393.244 Z" fill="#ffb8b8" style=""></path>
  <path d="M 502.607 256.077 C 502.071 256.856 501.596 257.676 501.187 258.531 L 417.407 270.546 L 404.686 254.341 L 377.8 270.407 L 403.072 309.937 L 505.251 279.719 C 515.475 289.002 531.878 283.703 534.782 270.179 C 537.685 256.658 524.907 245.052 511.782 249.292 C 508.068 250.491 504.848 252.874 502.607 256.077 Z" fill="#ffb8b8" style="" transform="matrix(0.865119, -0.501566, 0.501566, 0.865119, -78.449668, 266.619251)"></path>
  <polygon points="358.239 580.754 373.33 595.113 438.463 546.321 416.193 525.126 358.239 580.754" fill="#ffb8b8" style=""></polygon>
  <path d="M 341.728 592.245 L 407.195 592.245 C 407.195 592.245 407.195 592.245 407.195 592.245 L 406.051 617.508 C 406.051 617.508 406.051 617.508 406.051 617.508 L 365.878 617.508 C 351.909 617.508 341.096 606.198 341.728 592.245 L 341.728 592.245 C 341.728 592.245 341.728 592.245 341.728 592.245 Z" fill="#2f2e41" style="" transform="matrix(-0.724399, -0.689381, 0.689381, -0.724399, 228.707722, 1301.185912)"></path>
  <polygon points="278.028 718.49 299.324 718.49 309.453 639.989 278.025 639.989 278.028 718.49" fill="#ffb8b8" style=""></polygon>
  <path d="M 273.464 712.674 L 340.389 712.674 C 340.389 712.674 340.389 712.674 340.389 712.674 L 340.389 737.387 C 340.389 737.387 340.389 737.387 340.389 737.387 L 299.321 737.387 C 285.04 737.387 273.464 726.323 273.464 712.674 L 273.464 712.674 C 273.464 712.674 273.464 712.674 273.464 712.674 Z" fill="#2f2e41" style="" transform="matrix(-1, 0.000044, -0.000044, -1, 613.885068, 1450.047458)"></path>
  <path d="M 273.399 657.86 L 249.144 486.894 C 245.347 461.058 246.526 434.775 252.62 409.342 C 257.597 388.905 264.321 374.745 272.606 367.265 C 273.914 366.092 275.586 365.361 277.37 365.186 L 357.452 357.212 C 360.601 356.904 363.653 358.363 365.288 360.953 L 367.919 365.147 C 368.239 365.655 368.498 366.198 368.687 366.762 L 385.62 416.93 C 386.13 418.46 387.261 419.732 388.76 420.461 C 415.418 433.467 502.012 477.379 497.056 496.326 C 492.4 514.127 448.806 542.988 435.556 551.41 C 432.796 553.174 429.188 553.148 426.454 551.344 L 404.46 536.962 C 399.829 533.933 399.711 527.442 404.229 524.26 L 419.396 513.578 C 423.325 510.81 422.646 505.015 418.173 503.147 C 418.029 503.085 417.883 503.031 417.734 502.981 L 336.276 475.663 C 332.355 474.35 328.196 476.931 327.857 480.887 L 312.838 656.336 C 312.496 660.226 309.201 663.277 305.121 663.482 L 281.883 664.591 C 281.741 664.598 281.601 664.601 281.46 664.601 C 277.379 664.617 273.924 661.728 273.399 657.86 Z" fill="#2f2e41" style=""></path>
  <circle cx="279.305" cy="399.542" r="24.561" fill="#ffb8b8" style="" transform="matrix(1.736909, 0, 0, 1.660067, -175.000275, -488.376312)"></circle>
  <path d="M 270.225 360.281 L 238.824 250.775 L 239.362 250.428 C 240.035 249.993 307.719 207.278 386.964 241.701 L 388.401 242.488 L 369.793 356.149 C 368.956 361.5 364.257 365.525 358.6 365.738 L 282.032 368.554 C 281.877 368.558 281.725 368.561 281.572 368.561 C 276.265 368.574 271.61 365.177 270.225 360.281 Z" fill="#ccc" style=""></path>
  <path d="M 237.628 322.065 L 211.475 293.321 C 208.875 290.469 208.798 286.244 211.289 283.306 L 238.631 251.027 L 259.619 256.498 L 270.746 293.719 L 250.457 321.421 C 249.023 323.391 246.715 324.615 244.206 324.733 C 244.06 324.74 243.914 324.743 243.768 324.743 C 241.411 324.747 239.169 323.77 237.628 322.065 Z" fill="#ccc" style=""></path>
  <path d="M 382.252 316.078 C 379.744 315.958 377.435 314.735 376.001 312.765 L 355.714 285.064 L 365.471 245.881 L 384.795 240.844 L 388.401 242.488 L 415.168 274.65 C 417.66 277.587 417.583 281.813 414.982 284.664 L 388.83 313.409 C 387.289 315.112 385.047 316.092 382.69 316.088 C 382.543 316.088 382.398 316.084 382.252 316.078 Z" fill="#ccc" style=""></path>
  <path d="M 403.571 739.889 L 207.301 739.889 C 205.964 739.889 205.129 738.506 205.795 737.399 C 206.107 736.884 206.68 736.569 207.301 736.569 L 403.571 736.569 C 404.908 736.569 405.743 737.952 405.077 739.059 C 404.766 739.572 404.192 739.889 403.571 739.889 Z" fill="#3f3d56" style=""></path>
  <path d="M 293.906 204.708 C 281.146 198.52 280.18 181.451 292.168 173.982 C 293.255 173.305 294.414 172.739 295.625 172.293 C 308.498 167.544 322.929 177.235 336.424 174.479 C 349.874 171.733 357.654 156.366 354.444 143.582 C 351.233 130.803 339.548 121.175 326.664 116.577 C 309.62 110.509 290.615 112.174 275.007 121.102 C 259.525 130.314 249.809 146.243 249.05 163.656 C 248.692 181.13 258.125 197.454 273.789 206.471 C 277.22 208.361 281.211 209.878 285.068 209.026 C 288.235 208.043 291.219 206.586 293.906 204.708 Z" fill="#2f2e41" style=""></path>
  <path d="M 280.082 120.11 C 268.729 105.718 253.406 93.897 235.575 88.037 C 217.744 82.176 197.369 82.645 180.624 90.929 C 163.876 99.211 151.388 115.661 150.082 133.641 C 147.913 163.562 174.665 188.997 177.41 218.877 C 181.187 259.98 139.652 291.315 98.7 278.262 C 112.286 288.951 129.926 293.736 147.363 291.462 C 164.8 288.96 180.137 279.097 189.13 264.6 C 195.151 254.602 197.622 242.989 198.583 231.49 C 200.092 213.307 198.049 195.017 192.561 177.55 C 189.56 168.017 185.49 158.21 187.394 148.426 C 189.609 138.022 198.11 129.886 208.992 127.751 C 217.595 126.21 226.392 128.721 234.607 131.609 C 242.822 134.496 251.105 137.84 259.856 138.03 C 268.606 138.221 278.138 134.393 281.52 126.677 Z" fill="#2f2e41" style=""></path>
  <path d="M 797.386 277.266 C 797.952 278.034 798.457 278.844 798.896 279.691 L 883.908 289.236 L 896.272 272.556 L 923.921 287.897 L 899.582 328.413 L 795.431 301.12 C 785.384 310.765 768.648 305.933 765.306 292.422 C 761.965 278.912 774.524 266.856 787.913 270.722 C 791.7 271.815 795.026 274.113 797.386 277.266 Z" fill="#ffb8b8" style=""></path>
  <path d="M 917.88 302.407 C 917.195 302.107 916.557 301.71 915.986 301.228 L 881.819 272.489 C 878.345 269.567 878.115 264.305 881.32 261.092 L 912.325 230.006 C 915.015 227.285 919.297 226.944 922.385 229.206 L 945.832 246.206 C 948.85 248.397 949.882 252.421 948.288 255.79 L 928.004 298.613 C 926.209 302.401 921.727 304.08 917.879 302.407 Z" fill="#f50057" style=""></path>
  <polygon points="1051.143 708.868 1030.737 714.412 999.61 638.458 1029.728 630.276 1051.143 708.868" fill="#ffb8b8" style=""></polygon>
  <path d="M 1017.246 710.118 L 1058.453 710.118 C 1058.453 710.118 1058.453 710.118 1058.453 710.118 L 1058.473 735.762 C 1058.473 735.762 1058.473 735.762 1058.473 735.762 L 992.015 735.762 C 992.015 735.762 992.015 735.762 992.015 735.762 L 992.014 735.337 C 992.004 721.409 1003.301 710.118 1017.246 710.118 Z" fill="#2f2e41" style="" transform="matrix(0.965021, -0.262171, 0.262171, 0.965021, -153.672389, 294.076612)"></path>
  <polygon points="876.694 724.416 855.547 724.414 845.486 642.965 876.699 642.967 876.694 724.416" fill="#ffb8b8" style=""></polygon>
  <path d="M 840.016 718.38 L 881.227 718.38 C 881.227 718.38 881.227 718.38 881.227 718.38 L 881.227 744.022 C 881.227 744.022 881.227 744.022 881.227 744.022 L 814.762 744.022 C 814.762 744.022 814.762 744.022 814.762 744.022 L 814.762 743.597 C 814.762 729.67 826.068 718.38 840.016 718.38 Z" fill="#2f2e41" style=""></path>
  <circle cx="570.22114" cy="334.4528" r="24.97498" fill="#ffb8b8" transform="matrix(1.696395, 0, 0, 1.693854, -58.767044, -422.169739)" style=""></circle>
  <path d="M 875.4 666.343 L 846.5 666.343 C 842.401 666.335 839.009 663.154 838.746 659.069 C 830.134 522.377 835.171 424.325 854.598 350.495 C 854.683 350.172 854.788 349.855 854.912 349.545 L 856.46 345.681 C 857.63 342.732 860.49 340.798 863.668 340.808 L 923.097 340.808 C 925.363 340.807 927.517 341.796 928.991 343.515 L 937.063 352.919 C 937.22 353.102 937.368 353.289 937.51 353.486 C 973.909 404.169 1006.528 503.256 1044.307 636.439 C 1045.467 640.464 1043.204 644.679 1039.204 645.941 L 1008.146 655.865 C 1004.461 657.024 1000.481 655.316 998.788 651.848 L 918.192 484.935 C 916.172 480.755 910.378 480.326 907.763 484.162 C 907.238 484.932 906.898 485.813 906.772 486.737 L 883.091 659.641 C 882.554 663.474 879.276 666.33 875.4 666.343 Z" fill="#2f2e41" style=""></path>
  <path d="M 933.805 353.607 C 933.723 353.607 933.643 353.605 933.561 353.604 L 861.373 351.328 C 857.537 351.221 854.359 348.322 853.906 344.517 C 844.755 270.555 869.852 250.741 881.067 245.656 C 882.973 244.797 884.29 243.004 884.538 240.931 L 885.509 233.179 C 885.674 231.809 886.204 230.51 887.042 229.414 C 904.626 206.67 928.637 199.386 941.384 197.07 C 945.747 196.287 949.877 199.311 950.442 203.701 L 951.896 214.833 C 952.044 215.894 952.469 216.899 953.127 217.746 C 989.798 265.615 948.944 336.294 940.382 349.976 L 940.382 349.976 C 938.96 352.234 936.476 353.605 933.805 353.607 Z" fill="#f50057" style=""></path>
  <path d="M 955.168 118.035 C 952.021 108.51 949.698 98.733 948.225 88.812 C 947.762 83.036 949.244 76.821 953.456 72.835 C 961.341 65.377 974.736 68.929 982.981 75.988 C 994.896 86.189 1000.839 101.867 1003.085 117.378 C 1005.331 132.889 1004.343 148.663 1004.884 164.326 C 1005.424 179.989 1007.668 196.095 1015.665 209.58 C 1023.663 223.066 1038.503 233.418 1054.157 232.27 C 1060.476 231.929 1066.475 229.39 1071.115 225.094 C 1075.737 220.704 1077.938 214.348 1077.021 208.045 C 1085.022 222.351 1080.966 241.739 1069.032 252.984 C 1057.098 264.23 1038.741 267.409 1023.052 262.608 C 1007.363 257.806 994.45 245.767 986.737 231.305 C 979.025 216.843 976.198 200.137 976.608 183.757 C 976.922 171.179 979.064 158.497 976.935 146.096 C 974.806 133.694 967.033 121.102 954.776 118.182 Z" fill="#2f2e41" style=""></path>
  <path d="M 900.125 134.34 C 898.035 141.31 890.042 145.608 882.851 144.429 C 875.558 142.914 869.687 137.525 867.562 130.396 C 865.587 123.307 866.396 115.732 869.823 109.217 C 873.638 101.331 880.438 95.284 888.723 92.408 C 897.094 89.638 906.292 91.106 913.382 96.343 C 914.14 93.154 916.564 90.623 919.72 89.725 C 922.841 88.885 926.136 88.934 929.231 89.865 C 938.149 92.403 945.878 98.017 951.041 105.708 C 956.139 113.376 959.512 122.056 960.926 131.151 C 963.36 144.79 962.462 159.693 954.791 171.236 C 947.119 182.779 931.425 189.595 918.692 184.092 C 917.898 180.039 919.779 175.959 921.955 172.447 C 924.131 168.935 926.71 165.514 927.545 161.47 C 928.381 157.426 926.779 152.479 922.861 151.156 C 919.519 150.028 915.955 151.856 912.434 152.076 C 903.666 152.626 897.583 143.502 901.473 135.637 Z" fill="#2f2e41" style=""></path>
  <path d="M 792.748 308.616 C 793.449 309.263 794.097 309.964 794.688 310.713 L 879.977 304.085 L 888.971 285.377 L 919.021 295.239 L 902.767 339.61 L 795.331 332.41 C 787.285 343.773 769.936 342.178 764.104 329.538 C 758.272 316.899 768.33 302.695 782.209 303.972 C 786.134 304.333 789.835 305.963 792.748 308.616 Z" fill="#ffb8b8" style=""></path>
  <path d="M 918.558 324.793 C 917.839 324.589 917.153 324.282 916.522 323.882 L 878.751 300.061 C 874.911 297.639 873.964 292.457 876.701 288.838 L 903.174 253.823 C 905.468 250.761 909.663 249.841 913.031 251.661 L 938.579 265.313 C 941.869 267.072 943.44 270.919 942.321 274.473 L 928.071 319.657 C 926.81 323.653 922.598 325.927 918.558 324.793 Z" fill="#f50057" style=""></path>
</svg>