<?xml version="1.0" standalone="no"?>
<!DOCTYPE svg PUBLIC "-//W3C//DTD SVG 20010904//EN"
 "http://www.w3.org/TR/2001/REC-SVG-20010904/DTD/svg10.dtd">
<svg version="1.0" xmlns="http://www.w3.org/2000/svg"
 width="477.000000pt" height="130.000000pt" viewBox="0 0 477.000000 130.000000"
 preserveAspectRatio="xMidYMid meet">

<g transform="translate(0.000000,130.000000) scale(0.100000,-0.100000)"
fill="#000000" stroke="none">
<path d="M0 650 l0 -650 2385 0 2385 0 0 650 0 650 -2385 0 -2385 0 0 -650z
m1092 571 c213 -55 377 -162 470 -305 107 -166 107 -381 -2 -544 -35 -52 -39
-63 -30 -87 5 -14 10 -34 10 -43 -1 -9 -7 0 -15 22 -31 86 -196 209 -195 144
0 -7 23 -28 51 -47 68 -46 112 -111 113 -167 1 -50 -21 -85 -80 -127 -37 -27
-43 -28 -129 -23 -49 2 -108 10 -129 18 -34 13 -47 13 -95 0 -93 -23 -328 -20
-435 6 -309 76 -521 270 -557 512 -10 63 -9 88 4 154 9 44 14 83 11 88 -3 4
-1 8 5 8 5 0 24 27 42 61 44 82 164 194 266 247 87 45 216 88 308 102 93 14
298 4 387 -19z m975 -142 c37 -56 42 -124 13 -184 -20 -42 -79 -95 -105 -95
-5 0 4 9 21 19 94 57 114 197 39 277 -40 42 -43 49 -15 34 11 -6 32 -29 47
-51z m324 -100 l82 -160 44 83 c25 46 64 119 86 163 l42 80 3 -189 c1 -108 -2
-194 -7 -199 -23 -23 -31 8 -31 129 l0 125 -66 -128 c-37 -70 -68 -130 -70
-132 -1 -2 -32 56 -68 128 -37 72 -67 131 -69 131 -1 0 -2 -57 -2 -127 0 -114
-2 -128 -17 -131 -17 -3 -18 11 -18 192 0 108 2 196 4 196 3 0 42 -72 87 -161z
m537 146 c106 -45 151 -164 100 -265 -35 -67 -86 -103 -156 -108 -73 -5 -129
21 -171 79 -113 155 50 367 227 294z m-950 -15 c101 -62 96 -217 -9 -270 -21
-11 -47 -20 -59 -20 -16 0 -20 -6 -20 -36 0 -28 -3 -35 -17 -32 -16 3 -18 21
-21 191 l-2 187 47 0 c30 0 60 -7 81 -20z m292 5 c0 -12 -13 -15 -60 -15 l-60
0 0 -100 0 -100 61 0 c52 0 60 -2 57 -17 -2 -14 -15 -19 -61 -21 l-57 -3 0
-34 0 -35 65 0 c59 0 65 -2 65 -20 0 -20 -5 -21 -82 -18 l-83 3 -3 188 -2 187
80 0 c64 0 80 -3 80 -15z m840 -105 l0 -121 116 3 116 3 -1 118 c-2 112 -1
117 18 117 20 0 21 -5 21 -191 0 -176 -1 -190 -17 -187 -14 3 -18 14 -19 53
l-1 50 -116 3 -117 3 0 -56 c0 -46 -3 -56 -16 -53 -13 3 -15 30 -17 191 -2
172 -1 187 16 187 15 0 17 -12 17 -120z m540 105 c0 -12 -13 -15 -55 -15 l-55
0 0 -176 c0 -162 -1 -175 -17 -172 -16 3 -18 21 -21 175 l-2 172 -52 3 c-30 2
-53 8 -56 16 -3 9 27 12 127 12 110 0 131 -2 131 -15z m-1714 -340 c-4 -24
-16 -30 -16 -7 0 12 4 22 9 22 5 0 8 -7 7 -15z m591 -268 c113 -78 113 -246 0
-324 -34 -24 -50 -28 -107 -28 -120 0 -185 68 -185 195 0 65 19 110 65 148 59
50 162 54 227 9z m1870 0 c113 -78 113 -246 0 -324 -34 -24 -50 -28 -107 -28
-120 0 -185 68 -185 195 0 65 19 110 65 148 59 50 162 54 227 9z m-2517 -97
l0 -120 120 0 120 0 0 120 c0 100 3 120 15 120 13 0 15 -27 15 -185 0 -158 -2
-185 -15 -185 -11 0 -15 12 -15 50 l0 50 -120 0 -120 0 0 -50 c0 -38 -4 -50
-15 -50 -13 0 -15 27 -15 185 0 158 2 185 15 185 13 0 15 -20 15 -120z m60 15
c0 -63 -4 -105 -10 -105 -6 0 -10 42 -10 105 0 63 4 105 10 105 6 0 10 -42 10
-105z m270 33 c0 -125 -13 -298 -22 -298 -4 0 -8 83 -8 185 0 158 2 185 15
185 12 0 15 -15 15 -72z m505 34 c44 -56 125 -145 129 -141 2 2 25 43 51 92
35 62 54 87 68 87 23 0 30 16 -83 -194 -81 -149 -98 -176 -118 -176 -23 0 -22
2 18 76 42 75 42 76 23 97 -11 12 -54 61 -97 110 -77 85 -78 87 -49 87 22 0
36 -9 58 -38z m525 23 c0 -11 -12 -15 -52 -15 l-53 0 3 -170 c3 -158 2 -170
-15 -170 -17 0 -18 12 -15 170 l3 170 -56 0 c-42 0 -55 3 -55 15 0 13 20 15
120 15 100 0 120 -2 120 -15z m170 0 c0 -12 -13 -15 -60 -15 -47 0 -60 -3 -60
-15 0 -8 9 -15 20 -15 35 0 100 -39 120 -73 14 -22 20 -50 20 -91 0 -56 -2
-61 -44 -102 -40 -41 -47 -44 -95 -44 l-51 0 0 185 0 185 75 0 c60 0 75 -3 75
-15z m158 -37 c26 -28 60 -68 77 -90 16 -21 32 -38 35 -38 3 0 28 40 55 90 33
59 56 90 68 90 26 0 34 17 -96 -215 -15 -27 -40 -74 -54 -102 -20 -40 -33 -53
-49 -53 -22 0 -21 3 17 71 21 40 39 74 39 76 0 7 -88 114 -141 171 -47 50 -47
52 -23 52 19 0 39 -15 72 -52z m302 -65 l0 -116 76 99 c42 54 82 107 89 117 7
11 22 17 33 15 18 -3 12 -15 -54 -102 -40 -55 -74 -103 -74 -108 0 -5 27 -42
61 -81 53 -63 58 -72 40 -75 -14 -2 -30 8 -49 30 -15 18 -39 46 -54 63 l-26
30 -21 -25 c-12 -15 -20 -40 -21 -62 0 -27 -4 -38 -15 -38 -13 0 -15 27 -15
185 0 158 2 185 15 185 12 0 15 -20 15 -117z m757 97 c37 -22 73 -86 73 -128
0 -16 -5 -43 -11 -61 -9 -26 -8 -35 5 -50 21 -23 21 -69 -1 -93 -13 -15 -32
-18 -105 -18 l-88 0 0 185 0 185 48 0 c29 0 59 -7 79 -20z m-2612 -289 c-79
-6 -80 -6 -86 -36 -6 -29 -7 -29 -8 8 l-1 37 88 -2 87 -2 -80 -5z m-494 -89
c-5 -9 -19 -26 -32 -37 -17 -15 -15 -10 7 17 32 41 40 48 25 20z"/>
<path d="M660 1186 c-137 -31 -255 -85 -353 -161 -62 -49 -156 -167 -137 -173
6 -2 87 11 180 28 93 18 175 30 183 27 9 -3 17 -27 21 -61 4 -31 8 -56 10 -56
1 0 19 9 41 20 29 15 59 20 117 20 66 0 79 3 88 19 5 11 7 28 3 38 -10 26 41
-36 61 -74 18 -35 51 -56 105 -68 37 -8 58 9 39 32 -7 9 -7 13 0 13 5 0 13 11
16 25 4 14 13 25 21 25 11 0 14 11 12 46 -1 33 2 48 12 52 11 3 12 0 6 -14 -4
-11 -8 -37 -8 -59 -1 -53 23 -58 46 -11 25 53 85 115 121 124 34 10 71 0 100
-26 18 -17 70 -111 64 -117 -4 -3 -78 31 -101 47 -15 11 -24 9 -60 -11 -31
-18 -38 -20 -28 -7 22 27 66 46 106 46 54 0 41 32 -18 42 -22 4 -27 2 -22 -9
3 -11 1 -13 -10 -9 -8 3 -15 1 -15 -4 0 -5 -7 -6 -17 -3 -11 5 -14 3 -8 -6 6
-10 3 -11 -15 -1 -20 11 -22 10 -17 -3 4 -12 2 -14 -10 -10 -12 5 -14 1 -8
-17 5 -15 4 -20 -4 -16 -7 4 -11 -1 -11 -13 0 -15 -5 -19 -16 -14 -14 5 -15 3
-4 -17 11 -20 10 -22 -5 -16 -13 4 -16 2 -11 -9 3 -8 1 -15 -5 -15 -6 0 -8 -4
-5 -8 3 -5 -4 -14 -14 -22 -10 -8 -17 -17 -14 -22 3 -4 0 -8 -7 -8 -7 0 -9 -3
-6 -7 7 -6 -59 -52 -75 -53 -5 0 -8 13 -8 29 0 17 -6 31 -15 35 -24 9 -30 -22
-10 -44 11 -13 14 -20 6 -20 -7 0 -9 -4 -6 -10 9 -15 42 -12 82 6 30 15 95 86
105 116 6 17 135 -70 157 -106 11 -18 28 -60 36 -94 23 -87 104 -222 134 -222
14 0 68 93 88 152 26 77 23 216 -6 287 -78 192 -280 339 -529 387 -89 17 -305
17 -382 0z m373 -91 c43 -20 70 -55 62 -77 -6 -15 -78 -38 -121 -38 -22 0 -24
2 -14 15 6 8 9 19 5 25 -8 13 -68 13 -82 -1 -8 -8 -17 -8 -32 0 -16 9 -21 9
-22 -1 -5 -59 24 -100 48 -69 11 13 11 11 1 -12 l-11 -27 -22 20 c-27 26 -33
25 -37 -2 -2 -13 -8 5 -12 40 -9 72 2 99 57 133 39 25 122 22 180 -6z m54
-137 c-3 -7 -5 -2 -5 12 0 14 2 19 5 13 2 -7 2 -19 0 -25z m-87 -12 c0 -2 -9
-6 -20 -9 -11 -3 -18 -1 -14 4 5 9 34 13 34 5z m44 -52 c3 -8 2 -12 -4 -9 -6
3 -10 10 -10 16 0 14 7 11 14 -7z m-114 -44 c0 -5 -2 -10 -4 -10 -3 0 -8 5
-11 10 -3 6 -1 10 4 10 6 0 11 -4 11 -10z m-13 -42 c-3 -8 -6 -5 -6 6 -1 11 2
17 5 13 3 -3 4 -12 1 -19z"/>
<path d="M933 1093 c-29 -5 -30 -23 -2 -23 11 0 17 -4 14 -10 -3 -5 3 -10 14
-10 20 0 37 -32 26 -50 -3 -5 -4 -10 -1 -10 4 0 73 30 84 36 14 8 -16 48 -44
60 -33 14 -49 15 -91 7z"/>
<path d="M333 840 c-95 -19 -176 -39 -182 -45 -6 -6 1 -57 21 -140 16 -71 31
-132 33 -134 5 -4 301 66 331 78 21 9 21 9 5 135 -9 69 -21 129 -26 134 -6 4
-87 -8 -182 -28z m186 -85 c7 -44 14 -92 17 -106 5 -24 1 -27 -72 -48 -87 -25
-108 -24 -34 3 36 13 48 22 47 36 -1 15 -7 18 -27 14 -23 -4 -22 -3 5 10 l30
14 -30 2 -30 1 25 15 25 15 -27 -4 c-37 -6 -35 1 5 16 l32 11 -30 7 c-22 5
-24 7 -8 8 12 0 25 6 29 12 5 8 -1 10 -19 7 -15 -3 -24 -1 -21 3 3 5 14 9 25
9 27 0 24 20 -3 21 -22 1 -22 1 2 9 20 7 16 8 -25 10 l-50 2 55 12 c30 7 58 9
61 6 4 -3 12 -41 18 -85z m-52 -121 c-3 -3 -12 -4 -19 -1 -8 3 -5 6 6 6 11 1
17 -2 13 -5z"/>
<path d="M335 860 c-3 -5 -1 -10 4 -10 6 0 11 5 11 10 0 6 -2 10 -4 10 -3 0
-8 -4 -11 -10z"/>
<path d="M830 831 c0 -5 -7 -17 -16 -25 -20 -20 -34 -20 -34 -1 0 22 -36 18
-59 -7 -11 -11 -27 -40 -35 -62 -10 -28 -15 -34 -15 -19 -2 45 -20 31 -26 -21
-5 -37 -2 -71 9 -107 14 -52 19 -56 96 -104 95 -59 100 -78 29 -105 -42 -15
-47 -16 -56 -1 -8 13 -13 14 -26 3 -11 -9 -17 -10 -22 -2 -5 8 -11 8 -19 1 -7
-6 -16 -8 -20 -4 -4 4 -11 2 -15 -5 -6 -10 -10 -10 -20 2 -10 12 -7 15 19 21
28 6 43 25 20 25 -24 0 -7 18 23 25 17 4 35 9 40 10 4 1 12 3 17 4 13 1 13 21
0 21 -5 0 -31 13 -59 29 -27 16 -52 27 -55 24 -3 -4 -6 -2 -6 4 0 6 -14 16
-31 22 -39 13 -42 14 -34 1 3 -5 1 -10 -4 -10 -6 0 -11 4 -11 10 0 5 -7 7 -15
4 -8 -4 -12 -10 -9 -15 3 -5 0 -9 -5 -9 -6 0 -11 4 -11 10 0 5 -7 7 -15 4 -8
-4 -12 -11 -8 -18 4 -8 3 -8 -6 0 -10 9 -44 3 -139 -22 -69 -18 -129 -39 -133
-46 -12 -19 -15 -11 -38 97 -12 54 -24 101 -26 104 -13 13 -2 -95 15 -150 61
-200 272 -363 533 -412 73 -14 78 -14 73 2 -27 84 -52 181 -47 183 3 0 13 1
21 2 8 1 17 12 21 26 6 21 7 22 8 4 1 -11 -4 -25 -9 -30 -7 -7 -5 -23 7 -50
13 -30 18 -35 21 -20 3 16 7 14 20 -15 l16 -34 4 28 3 28 46 -51 c75 -83 111
-66 98 48 l-6 57 18 -27 c22 -35 36 -36 23 -2 -17 43 -11 50 16 20 32 -36 40
-29 19 20 l-16 38 24 -22 c32 -30 36 -28 26 16 -5 20 -9 51 -9 67 0 28 -3 30
-41 32 -31 1 -202 65 -237 89 -2 1 -6 20 -9 41 -4 34 -2 40 24 55 15 10 46 34
67 53 l39 35 -20 23 c-32 35 -39 54 -10 28 l27 -24 0 30 c0 17 -7 36 -15 43
-8 7 -15 19 -15 26 0 8 -4 14 -10 14 -5 0 -10 -4 -10 -9z m-574 -406 c6 -5 27
-19 47 -30 20 -11 37 -23 37 -27 0 -13 35 -9 104 13 56 17 72 18 99 8 26 -9
32 -17 34 -45 3 -29 0 -34 -25 -40 -60 -13 -63 -15 -60 -41 2 -14 -2 -28 -8
-30 -7 -2 -10 6 -6 23 4 24 3 26 -21 22 -53 -10 -16 10 42 23 47 10 59 17 58
31 -1 11 -7 16 -14 13 -8 -2 -42 -12 -76 -20 -34 -9 -67 -23 -74 -31 -10 -13
-25 -6 -105 55 -72 54 -93 75 -94 95 -2 25 -1 25 25 8 14 -9 31 -21 37 -27z
m411 -107 c-3 -7 -5 -2 -5 12 0 14 2 19 5 13 2 -7 2 -19 0 -25z m-50 -30 c-3
-8 -6 -5 -6 6 -1 11 2 17 5 13 3 -3 4 -12 1 -19z"/>
<path d="M230 416 c0 -3 20 -19 45 -36 24 -17 58 -45 75 -63 22 -24 30 -28 30
-15 0 10 -27 36 -62 61 -73 51 -88 60 -88 53z"/>
<path d="M105 778 c3 -13 8 -32 10 -43 4 -24 44 -193 51 -218 24 -81 -8 119
-41 261 -3 12 -10 22 -16 22 -7 0 -9 -9 -4 -22z"/>
<path d="M1103 691 c-35 -37 -63 -70 -63 -73 0 -4 14 -9 31 -13 44 -10 57 -50
27 -82 -15 -16 -22 -34 -20 -53 2 -16 -3 -41 -11 -57 -13 -25 -12 -33 4 -71
11 -25 24 -42 31 -40 19 7 21 43 3 58 -22 18 -19 32 5 18 29 -19 41 -1 30 47
-8 36 -7 43 16 65 l25 25 -17 -31 c-15 -26 -16 -40 -8 -80 8 -44 12 -49 36
-49 14 0 30 -3 34 -7 15 -16 34 -7 34 15 1 21 1 21 12 2 16 -28 30 -36 45 -23
9 7 10 15 2 29 -8 15 -5 29 12 59 l22 40 -36 35 c-21 20 -41 34 -46 31 -5 -3
-11 1 -15 9 -3 8 -16 15 -30 15 -19 0 -23 4 -19 19 3 11 0 36 -7 55 -10 33
-20 41 -42 37 -12 -2 -10 17 2 24 6 3 10 11 10 16 0 6 -5 7 -11 3 -6 -3 -3 5
6 20 30 45 2 26 -62 -43z m77 -108 c-8 -3 -22 -11 -30 -17 -13 -10 -13 -9 -1
7 7 9 21 17 30 16 13 0 14 -1 1 -6z m-60 -119 c0 -14 -3 -14 -15 -4 -8 7 -15
14 -15 16 0 2 7 4 15 4 8 0 15 -7 15 -16z m87 -61 c-3 -10 -5 -4 -5 12 0 17 2
24 5 18 2 -7 2 -21 0 -30z m-17 2 c0 -14 -2 -25 -4 -25 -2 0 -6 11 -8 25 -3
14 -1 25 3 25 5 0 9 -11 9 -25z m70 0 c-14 -17 -30 -20 -30 -4 0 5 5 7 10 4 6
-3 13 1 16 10 4 9 9 14 12 11 3 -3 -1 -12 -8 -21z m44 -31 c3 -8 2 -12 -4 -9
-6 3 -10 10 -10 16 0 14 7 11 14 -7z"/>
<path d="M926 724 c-3 -9 -3 -21 1 -27 4 -6 0 -8 -10 -4 -28 11 -20 -22 9 -35
33 -15 51 7 27 34 -13 14 -13 20 -3 33 10 12 10 15 -3 15 -8 0 -18 -7 -21 -16z"/>
<path d="M853 653 c-23 -8 -14 -20 27 -33 21 -7 37 -17 34 -21 -3 -5 -23 0
-46 12 -24 12 -44 17 -50 11 -5 -5 8 -15 33 -25 24 -9 40 -19 37 -22 -3 -3
-26 3 -51 14 -37 16 -48 17 -56 7 -9 -11 1 -17 47 -30 79 -22 88 -21 134 16
37 29 39 32 20 39 -53 20 -118 36 -129 32z"/>
<path d="M975 575 l-40 -34 28 -10 c16 -6 34 -11 41 -11 17 0 40 26 29 32 -4
3 -2 3 6 1 14 -4 41 14 41 27 0 4 -8 10 -17 13 -10 2 -25 7 -33 11 -9 3 -31
-9 -55 -29z"/>
<path d="M760 565 c0 -4 5 -16 11 -27 7 -14 14 -17 18 -9 13 20 102 -18 138
-58 18 -20 33 -32 33 -28 0 4 9 3 19 -3 16 -8 20 -6 24 13 l4 22 2 -23 c2 -33
25 -22 29 14 2 16 15 38 29 50 14 11 24 26 21 34 -3 9 -16 3 -44 -22 -36 -32
-41 -33 -64 -21 -23 11 -25 11 -28 -9 -4 -20 -4 -20 -15 3 -8 16 -29 28 -68
40 -85 25 -109 30 -109 24z"/>
<path d="M1200 303 c0 -30 24 -85 43 -98 22 -16 67 -21 67 -7 0 4 -14 15 -30
24 -17 9 -40 33 -51 53 -21 34 -29 43 -29 28z"/>
<path d="M1400 208 c-30 -22 -85 -55 -123 -72 -37 -18 -64 -35 -61 -39 11 -11
115 -8 158 4 66 18 111 83 90 129 -8 17 -14 15 -64 -22z"/>
<path d="M2770 1078 c-50 -34 -72 -83 -67 -146 5 -65 28 -100 90 -130 57 -29
112 -23 158 15 41 35 59 74 59 130 0 91 -63 153 -156 153 -37 0 -60 -6 -84
-22z"/>
<path d="M1890 975 l0 -125 28 6 c88 22 127 107 82 181 -19 32 -66 63 -95 63
-13 0 -15 -19 -15 -125z m56 46 c-3 -20 -6 -57 -6 -83 0 -27 -4 -48 -10 -48
-6 0 -10 37 -10 90 0 78 2 89 16 83 12 -5 15 -14 10 -42z"/>
<path d="M2340 477 c-96 -64 -96 -200 0 -264 24 -17 48 -23 86 -23 46 0 59 5
89 31 45 40 65 78 65 124 0 46 -20 84 -65 124 -30 26 -43 31 -89 31 -38 0 -62
-6 -86 -23z"/>
<path d="M4210 477 c-96 -64 -96 -200 0 -264 24 -17 48 -23 86 -23 46 0 59 5
89 31 45 40 65 78 65 124 0 46 -20 84 -65 124 -30 26 -43 31 -89 31 -38 0 -62
-6 -86 -23z"/>
<path d="M3290 310 l0 -120 26 0 c17 0 40 14 65 39 31 31 39 46 39 75 0 68
-50 126 -110 126 -19 0 -20 -6 -20 -120z"/>
<path d="M4530 380 l0 -120 31 0 c48 0 99 56 99 109 0 73 -49 131 -110 131
-19 0 -20 -6 -20 -120z"/>
<path d="M4610 239 c-19 -11 -45 -19 -57 -19 -14 0 -23 -6 -23 -15 0 -13 12
-15 68 -13 67 3 67 3 67 32 0 36 -10 39 -55 15z"/>
</g>
</svg>
