<svg version="1.1" viewBox="7 202 314 128" xmlns="http://www.w3.org/2000/svg"><path d="m157 245 2 1c0-1 0-3 1-6s2-4 2-5c-4 4-7 7-10 8-1 0-2 1-3 1-2 0-4-1-5-3-1-1-2-4-2-6 0-5 2-10 5-17s7-12 11-16l3 3c-9 11-14 20-14 27 0 4 2 6 5 6s6-2 8-5c3-4 6-10 9-17 1-3 2-5 2-6l2-2c1 0 1 0 2 1v1c0 3-2 8-5 13-3 6-5 14-8 23 2 0 4 0 6 1l-1 3-6-2c-2 7-5 12-8 15-4 3-8 5-12 5-3 0-4-1-6-2-2-2-2-4-2-6 0-4 2-7 7-10 4-3 10-5 17-5zm-13 18c3 0 6-1 8-4 3-3 4-7 6-11-6 0-10 1-14 4-3 2-5 4-5 7 0 1 0 2 1 3s2 1 4 1zm68-26 1 2c-2 4-5 7-8 7-1 0-2-1-3-2 0 0-1-1-1-3 0-1 1-3 2-6 2-3 2-5 2-7v-2h-2-2l-2 2c-1 1-1 2-2 3-1 0-1 2-2 3-1 2-1 3-2 4-1 2-2 4-3 8l-4-1s1-3 2-8 2-8 2-9 0-1-1-2c0 0 0-1-1-1-2 0-4 3-7 8s-6 9-6 13l-4-1c0-3 1-7 3-13s3-11 4-13l3 1c-1 3-2 6-3 8 0 2-1 5-1 7 4-6 6-10 9-12 2-2 4-3 6-3s3 1 3 3c0 1 0 3-1 6-1 2-1 4-2 6 6-10 11-15 15-15 1 0 2 0 2 1 1 1 1 2 1 3 0 2 0 4-2 8-1 3-2 5-2 6v2c1 0 1 1 2 1s2-1 4-4zm12-3c3-6 6-9 8-11s4-3 6-3 3 1 4 2 1 3 1 4c0 5-1 10-4 14-4 4-7 6-11 6-2 0-3 0-4-1l2-3c2 0 3 1 3 1 3 0 5-2 6-5 2-3 3-5 3-8 0-2 0-2-1-3 0-1-1-1-2-1-2 0-5 2-7 6-3 5-6 10-8 17-2 6-4 13-6 20l-4-1s1-3 2-7c2-5 3-9 5-13 3-12 5-19 5-20 0-3 0-5-1-8l3-1c1 1 1 4 1 6s0 5-1 9zm36-7 3-1c1 2 1 4 1 6 0 4-1 7-3 10s-5 5-8 5c-2 0-4-1-5-3-1-1-2-3-2-6 0-4 1-8 4-12 3-3 7-5 10-5h2v3c-3 0-6 1-8 3s-3 4-3 8c0 2 0 3 1 4 1 2 2 2 4 2 1 0 3-1 3-2 1-2 2-4 2-6s0-4-1-6z"/><path d="m153 276 3 2c-3 6-6 13-9 23h4v4h-5c-1 3-1 5-2 7v5 3h-3c-1-1-1-2-1-3 0-3 1-7 2-12-2 0-6 1-11 1 0 1 0 2-1 4s-2 4-2 5c-1 2-2 4-4 5-1 2-2 3-4 5-4 3-8 5-11 5-2 0-3-1-4-2s-2-3-2-4c0-5 2-9 7-12 4-4 10-7 18-9 3-10 7-17 12-21-6 0-10 2-14 4s-6 5-6 8c0 1 1 2 1 3 0 0 1 1 2 3l-2 2c-2-1-3-3-4-4-1-2-2-4-2-6s2-5 4-7c3-3 6-5 10-6s8-2 12-2c2 0 3 0 4 1 1 0 1 1 1 2 0 0 0 1-2 2-5 4-8 10-11 20 2 0 5-1 10-1 2-7 4-11 5-14s3-7 5-11zm-40 49c2 0 3-1 5-2 2-2 4-4 5-6 2-2 3-6 4-10-6 1-10 3-13 5-3 3-5 6-5 9 0 1 0 2 1 3s2 1 3 1zm63-13 1 1c-1 2-3 3-5 5-2 1-4 2-6 2s-4-1-5-2c-1-2-2-4-2-6 0-4 2-8 6-12s8-6 12-6c2 0 3 1 3 3 0 3-1 5-4 8-2 2-6 5-11 7 0 1 1 1 1 2 1 1 2 1 3 1s4-1 7-3zm-12-2c4-2 6-3 9-5 2-2 3-4 3-5v-2c-1 0-1-1-2-1-2 0-4 2-6 4-2 3-3 6-4 9zm26-12c-1 5-2 9-2 12s1 4 3 4 3 0 5-2c1-2 2-4 2-6 0-3-1-4-3-4 0 0-1 1-2 1l-1-2c2-2 4-3 6-3 3 0 4 2 4 5s-1 7-4 11-6 6-8 6c-4 0-5-3-5-8 0-3 0-7 2-13l-5 2v-1s2-1 5-3c1-9 3-15 6-19 2-3 5-5 9-5 1 0 3 0 4 2 1 1 1 2 1 4 0 4-1 8-5 11-3 4-7 6-12 8zm0-2c4-2 7-4 9-6 2-3 3-5 3-7 0-1 0-2-1-3 0-1-1-1-2-1s-3 1-5 4c-1 3-3 7-4 13zm36 16 1 1c-1 2-3 3-5 5-2 1-4 2-6 2s-4-1-5-2c-1-2-2-4-2-6 0-4 2-8 6-12s7-6 11-6c3 0 4 1 4 3 0 3-1 5-4 8-3 2-6 5-11 7 0 1 1 1 1 2 1 1 2 1 3 1s4-1 7-3zm-12-2c4-2 6-3 9-5 2-2 3-4 3-5s0-2-1-2c0 0 0-1-1-1-2 0-4 2-6 4-2 3-3 6-4 9zm33 0 1 1c-1 3-2 5-4 6-2 2-5 3-6 3-2 0-4-1-5-3-2-1-2-3-2-5 0-3 1-5 3-8 1-3 4-5 7-7s6-3 8-3h2v3c-4 0-8 1-11 4s-4 6-4 9c0 2 0 3 1 3 1 1 2 2 3 2 2 0 4-2 7-5zm44 1 1 1c-2 5-4 7-7 7-1 0-2 0-3-1s-1-2-1-3 1-3 2-6 2-6 2-7 0-2-1-2c0-1-1-1-1-1-1 0-2 0-2 1-1 0-2 1-3 2 0 0-1 1-1 2-1 1-2 2-2 4-1 1-2 2-2 3-1 2-2 5-4 9l-3-2s0-2 2-7c1-5 2-8 2-9s0-2-1-2c0-1-1-1-1-1-2 0-5 3-8 8s-5 9-6 13l-3-2c0-2 1-6 3-13 1-6 3-10 4-12l3 1c-2 3-3 5-3 8 0 2-1 4-1 6 3-5 6-9 8-11 3-2 5-4 7-4s3 2 3 4c0 1-1 3-2 5 0 3-1 5-1 7 5-11 10-16 15-16 1 0 1 1 2 2 1 0 1 1 1 3 0 1-1 4-2 7-2 4-2 6-2 7v2h1c1 0 3-1 4-3zm17-7c2 0 3 1 3 3 0 3-1 5-4 8s-5 4-8 4c-2 0-4-2-4-5 0-4 1-7 2-12 2-4 3-7 4-9l2 1c-1 3-2 7-3 12h1c2-1 5-2 7-2zm-1 7v-2c0-1-1-2-3-2-1 0-2 1-4 1-1 2-1 3-1 4s0 2 1 3c0 0 1 1 2 1l5-5zm10-1-2 9-4-1 3-15c2-5 3-8 4-10h3c-2 5-3 10-4 17z"/><path d="m79 234 3 3v-3s3 2 6 3l-3-3s4 3 9 2c-1-1-3 0-5-3 4 2 10 1 10 1s-4 0-6-1c4 0 8-1 9-2h-7c4 0 6-1 8-4-1 1-4 3-9 2-1 0-1-2-1-2s-2-2-3-2c1 2 3 3 2 5s-5 4-12 3c-1 0-1 1-1 1"/><path d="m99 254s2 1 3 0 5-6 5-6 2-3 2 0c0 4-2 4-2 4s5 0 3 4c-1 4-5 2-5 2s3-1 3-2c-1-1-3-2-5-1s-2 1-4-1"/><path d="m76 226v1c1-2 3-5 7-6 5 0 7 1 8 1s3-2 1-3c-1-1-8 0-10 0-1 1-5 4-6 7"/><path d="m106 239s-3 1-3 2 0 2 1 2c1-1-1-2 2-4"/><path d="m73 264v1s1 1 1 2c2 5 4 12 2 19-3 7-5 13-5 13l12-21s2-5 9-6c2-1 15-6 16-8-2 1-26 10-34 1 0 0 0-1-1-1"/><path d="m71 203s-7 20 6 31c13 10-3 30-15 40-11 11-20 15-21 27 0 5 4 20 15 17-2 2-12 4-19-3 5 6 10 13 21 13-5 2-30 4-29-19s23-33 23-33-37 9-29 50c-6-3-7-25 1-40-9 5-11 28-11 28s-11-30 5-45 36-12 40-32c-9 10-23 17-30 20s-18 9-21 27c-1-18 0-47 28-55-11-2-26 18-26 18s19-44 62-44"/><path d="m61 280s-7 19 9 28c15 8 5 22 5 22s15-12 1-22c-10-7-16-12-15-28"/><path d="m61 301s-3 10 4 14c8 4 3 11 3 11s8-6 1-11c-5-4-9-6-8-14"/></svg>
