<svg xmlns="http://www.w3.org/2000/svg" viewBox="7 202 314 128"><path d="M157 245L159 246C159 245 159 243 160 240 161 237 162 236 162 235 158 239 155 242 152 243 151 243 150 244 149 244 147 244 145 243 144 241 143 240 142 237 142 235 142 230 144 225 147 218 150 211 154 206 158 202L161 205C152 216 147 225 147 232 147 236 149 238 152 238 155 238 158 236 160 233 163 229 166 223 169 216 170 213 171 211 171 210 172 209 173 208 173 208 174 208 174 208 175 209 175 209 175 210 175 210 175 213 173 218 170 223 167 229 165 237 162 246 164 246 166 246 168 247L167 250 161 248C159 255 156 260 153 263 149 266 145 268 141 268 138 268 137 267 135 266 133 264 133 262 133 260 133 256 135 253 140 250 144 247 150 245 157 245ZM144 263C147 263 150 262 152 259 155 256 156 252 158 248 152 248 148 249 144 252 141 254 139 256 139 259 139 260 139 261 140 262 141 263 142 263 144 263ZM212 237L213 239C211 243 208 246 205 246 204 246 203 245 202 244 202 244 201 243 201 241 201 240 202 238 203 235 205 232 205 230 205 228 205 227 205 227 205 226 204 226 204 226 203 226 202 226 202 226 201 226 200 227 200 227 199 228 198 229 198 230 197 231 196 231 196 233 195 234 194 236 194 237 193 238 192 240 191 242 190 246L186 245C186 245 187 242 188 237 189 232 190 229 190 228 190 227 190 227 189 226 189 226 189 225 188 225 186 225 184 228 181 233 178 238 175 242 175 246L171 245C171 242 172 238 174 232 176 226 177 221 178 219L181 220C180 223 179 226 178 228 178 230 177 233 177 235 181 229 183 225 186 223 188 221 190 220 192 220 194 220 195 221 195 223 195 224 195 226 194 229 193 231 193 233 192 235 198 225 203 220 207 220 208 220 209 220 209 221 210 222 210 223 210 224 210 226 210 228 208 232 207 235 206 237 206 238 206 239 206 240 206 240 207 240 207 241 208 241 209 241 210 240 212 237ZM224 234C227 228 230 225 232 223 234 221 236 220 238 220 240 220 241 221 242 222 243 223 243 225 243 226 243 231 242 236 239 240 235 244 232 246 228 246 226 246 225 246 224 245L226 242C228 242 229 243 229 243 232 243 234 241 235 238 237 235 238 233 238 230 238 228 238 228 237 227 237 226 236 226 235 226 233 226 230 228 228 232 225 237 222 242 220 249 218 255 216 262 214 269L210 268C210 268 211 265 212 261 214 256 215 252 217 248 220 236 222 229 222 228 222 225 222 223 221 220L224 219C225 220 225 223 225 225 225 227 225 230 224 234ZM260 227L263 226C264 228 264 230 264 232 264 236 263 239 261 242 259 245 256 247 253 247 251 247 249 246 248 244 247 243 246 241 246 238 246 234 247 230 250 226 253 223 257 221 260 221 261 221 261 221 262 221L262 224C259 224 256 225 254 227 252 229 251 231 251 235 251 237 251 238 252 239 253 241 254 241 256 241 257 241 259 240 259 239 260 237 261 235 261 233 261 231 261 229 260 227Z" style="fill:rgb(51, 51, 51);white-space:pre"/><path d="M153 276L156 278C153 284 150 291 147 301 149 301 150 301 151 301L151 305C150 305 148 305 146 305 145 308 145 310 144 312 144 313 144 315 144 317 144 318 144 319 144 320L141 320C140 319 140 318 140 317 140 314 141 310 142 305 140 305 136 306 131 306 131 307 131 308 130 310 129 312 128 314 128 315 127 317 126 319 124 320 123 322 122 323 120 325 116 328 112 330 109 330 107 330 106 329 105 328 104 327 103 325 103 324 103 319 105 315 110 312 114 308 120 305 128 303 131 293 135 286 140 282 134 282 130 284 126 286 122 288 120 291 120 294 120 295 121 296 121 297 121 297 122 298 123 300L121 302C119 301 118 299 117 298 116 296 115 294 115 292 115 290 117 287 119 285 122 282 125 280 129 279 133 278 137 277 141 277 143 277 144 277 145 278 146 278 146 279 146 280 146 280 146 281 144 282 139 286 136 292 133 302 135 302 138 301 143 301 145 294 147 290 148 287 149 284 151 280 153 276ZM113 325C115 325 116 324 118 323 120 321 122 319 123 317 125 315 126 311 127 307 121 308 117 310 114 312 111 315 109 318 109 321 109 322 109 323 110 324 111 325 112 325 113 325ZM176 312L177 313C176 315 174 316 172 318 170 319 168 320 166 320 164 320 162 319 161 318 160 316 159 314 159 312 159 308 161 304 165 300 169 296 173 294 177 294 179 294 180 295 180 297 180 300 179 302 176 305 174 307 170 310 165 312 165 313 166 313 166 314 167 315 168 315 169 315 170 315 173 314 176 312ZM164 310C168 308 170 307 173 305 175 303 176 301 176 300 176 299 176 298 176 298 175 298 175 297 174 297 172 297 170 299 168 301 166 304 165 307 164 310ZM190 298C189 303 188 307 188 310 188 313 189 314 191 314 193 314 194 314 196 312 197 310 198 308 198 306 198 303 197 302 195 302 195 302 194 303 193 303L192 301C194 299 196 298 198 298 201 298 202 300 202 303 202 306 201 310 198 314 195 318 192 320 190 320 186 320 185 317 185 312 185 309 185 305 187 299L182 301 182 300C182 300 184 299 187 297 188 288 190 282 193 278 195 275 198 273 202 273 203 273 205 273 206 275 207 276 207 277 207 279 207 283 206 287 202 290 199 294 195 296 190 298ZM190 296C194 294 197 292 199 290 201 287 202 285 202 283 202 282 202 281 201 280 201 279 200 279 199 279 198 279 196 280 194 283 193 286 191 290 190 296ZM226 312L227 313C226 315 224 316 222 318 220 319 218 320 216 320 214 320 212 319 211 318 210 316 209 314 209 312 209 308 211 304 215 300 219 296 222 294 226 294 229 294 230 295 230 297 230 300 229 302 226 305 223 307 220 310 215 312 215 313 216 313 216 314 217 315 218 315 219 315 220 315 223 314 226 312ZM214 310C218 308 220 307 223 305 225 303 226 301 226 300 226 299 226 298 225 298 225 298 225 297 224 297 222 297 220 299 218 301 216 304 215 307 214 310ZM247 310L248 311C247 314 246 316 244 317 242 319 239 320 238 320 236 320 234 319 233 317 231 316 231 314 231 312 231 309 232 307 234 304 235 301 238 299 241 297 244 295 247 294 249 294 250 294 250 294 251 294L251 297C247 297 243 298 240 301 237 304 236 307 236 310 236 312 236 313 237 313 238 314 239 315 240 315 242 315 244 313 247 310ZM291 311L292 312C290 317 288 319 285 319 284 319 283 319 282 318 281 317 281 316 281 315 281 314 282 312 283 309 284 306 285 303 285 302 285 301 285 300 284 300 284 299 283 299 283 299 282 299 281 299 281 300 280 300 279 301 278 302 278 302 277 303 277 304 276 305 275 306 275 308 274 309 273 310 273 311 272 313 271 316 269 320L266 318C266 318 266 316 268 311 269 306 270 303 270 302 270 301 270 300 269 300 269 299 268 299 268 299 266 299 263 302 260 307 257 312 255 316 254 320L251 318C251 316 252 312 254 305 255 299 257 295 258 293L261 294C259 297 258 299 258 302 258 304 257 306 257 308 260 303 263 299 265 297 268 295 270 293 272 293 274 293 275 295 275 297 275 298 274 300 273 302 273 305 272 307 272 309 277 298 282 293 287 293 288 293 288 294 289 295 290 295 290 296 290 298 290 299 289 302 288 305 286 309 286 311 286 312 286 313 286 313 286 314 286 314 287 314 287 314 288 314 290 313 291 311ZM308 304C310 304 311 305 311 307 311 310 310 312 307 315 304 318 302 319 299 319 297 319 295 317 295 314 295 310 296 307 297 302 299 298 300 295 301 293L303 294C302 297 301 301 300 306L301 306C303 305 306 304 308 304ZM307 311C307 310 307 310 307 309 307 308 306 307 304 307 303 307 302 308 300 308 299 310 299 311 299 312 299 313 299 314 300 315 300 315 301 316 302 316 302 316 303 315 304 314 305 313 306 312 307 311ZM317 310L315 319 311 318C312 313 313 308 314 303 316 298 317 295 318 293L321 293C319 298 318 303 317 310Z"/><path d="M79 234L82 237 82 234C82 234 85 236 88 237 87 236 85 234 85 234 85 234 89 237 94 236 93 235 91 236 89 233 93 235 99 234 99 234 99 234 95 234 93 233 97 233 101 232 102 231 99 231 97 231 95 231 99 231 101 230 103 227 102 228 99 230 94 229 93 229 93 227 93 227 93 227 91 225 90 225 91 227 93 228 92 230 91 232 87 234 80 233 79 233 79 234 79 234"/><path d="M99 254C99 254 101 255 102 254 103 253 107 248 107 248 107 248 109 245 109 248 109 252 107 252 107 252 107 252 112 252 110 256 109 260 105 258 105 258 105 258 108 257 108 256 107 255 105 254 103 255 101 256 101 256 99 254"/><path d="M76 226C76 227 76 227 76 227 77 225 79 222 83 221 88 221 90 222 91 222 92 222 94 220 92 219 91 218 84 219 82 219 82 219 82 219 82 219 81 220 77 223 76 226"/><path d="M106 239C106 239 103 240 103 241 103 242 103 243 104 243 105 242 103 241 106 239"/><path d="M73 264C73 264 73 265 73 265 73 265 74 266 74 267 76 272 78 279 76 286 73 293 71 299 71 299L83 278C83 278 85 273 92 272 94 271 107 266 108 264 106 265 82 274 74 265 74 265 74 264 73 264"/><path d="M71 203C71 203 64 223 77 234 90 244 74 264 62 274 51 285 42 289 41 301 41 306 45 321 56 318 54 320 44 322 37 315 42 321 47 328 58 328 53 330 28 332 29 309 30 286 52 276 52 276 52 276 15 285 23 326 17 323 16 301 24 286 15 291 13 314 13 314 13 314 2 284 18 269 34 254 54 257 58 237 49 247 35 254 28 257 21 260 10 266 7 284 6 266 7 237 35 229 24 227 9 247 9 247 9 247 28 203 71 203"/><path d="M61 280C61 280 54 299 70 308 85 316 75 330 75 330 75 330 90 318 76 308 66 301 60 296 61 280"/><path d="M61 301C61 301 58 311 65 315 73 319 68 326 68 326 68 326 76 320 69 315 64 311 60 309 61 301"/></svg>