<?xml version="1.0" encoding="utf-8"?>
<svg viewBox="-79.477 -34.526 58.523 25.247" xmlns="http://www.w3.org/2000/svg">
  <defs>
    <clipPath id="a">
      <circle cx="400" cy="400" r="400" fill="none"/>
    </clipPath>
    <linearGradient id="b" x1="466.86" x2="172.49" y1="338.14" y2="632.51" gradientUnits="userSpaceOnUse">
      <stop offset="0"/>
      <stop stop-opacity="0" offset="1"/>
    </linearGradient>
    <filter id="drop-shadow-filter-0" x="-500%" y="-500%" width="1000%" height="1000%">
      <feGaussianBlur in="SourceAlpha" stdDeviation="0.1"/>
      <feOffset dx="-0.4" dy="0.4"/>
      <feComponentTransfer result="offsetblur">
        <feFuncA id="spread-ctrl" type="linear" slope="2"/>
      </feComponentTransfer>
      <feFlood flood-color="rgba(14,125,85,1)"/>
      <feComposite in2="offsetblur" operator="in"/>
      <feMerge>
        <feMergeNode/>
        <feMergeNode in="SourceGraphic"/>
      </feMerge>
    </filter>
  </defs>
  <circle cx="400" cy="400" r="14.545" style="fill: rgb(22, 198, 134);" transform="matrix(1.382114, 0, 0, 0.834445, -609.96766, -356.167455)"/>
  <g clip-path="url(#a)" style="" transform="matrix(0.03564, 0, 0, 0.034776, -79.946985, -36.728406)">
    <path d="M283.3 789.3L584.665 487.93l-23.194-9.747 23.194-23.195-23.194-9.747 23.194-23.194-23.194-9.748 23.194-23.195-23.194-9.746 23.194-23.194-23.194-9.747 23.194-23.195-26.55-11.157-31.546 31.547V301.92l-23.49-23.49h-41.695l31.547-31.547-11.157-26.55-23.194 23.195-9.746-23.194-23.195 23.194-9.748-23.194-23.194 23.194-9.747-23.194-23.193 23.194-9.747-23.194-23.195 23.194-9.747-23.194L13.2 524.2C58.236 649.39 145.008 740.42 283.3 789.3z" fill="url(#b)" opacity=".42"/>
    <path d="M299.78 269.58l-25.2 25.2v210.44l25.2 25.2h210.44l25.2-25.2V294.78l-25.2-25.2zm226.79 228.5l-23.49 23.49H306.92l-23.49-23.49V301.92l23.49-23.49h196.16l23.49 23.49z" fill="#fff"/>
    <path d="m312.51 285.36l-22.15 22.15v184.99l22.15 22.15h184.99l22.15-22.15v-184.99l-22.15-22.15h-184.99m-87.172 26.713h26.55v11.157h-26.55zm0 32.942h26.55v11.157h-26.55zm0 32.94h26.55v11.158h-26.55zm0 32.942h26.55v11.157h-26.55zm0 32.942h26.55v11.157h-26.55zm0 32.941h26.55v11.157h-26.55zm332.78-164.71h26.55v11.157h-26.55zm0 32.942h26.55v11.157h-26.55zm0 32.94h26.55v11.158h-26.55zm0 32.942h26.55v11.157h-26.55zm0 32.942h26.55v11.157h-26.55zm0 32.941h26.55v11.157h-26.55zm-241.05 76.342h11.157v26.55h-11.157zm32.942 0h11.157v26.55h-11.157zm32.94 0h11.158v26.55h-11.158zm32.942 0h11.157v26.55h-11.159zm32.942 0h11.157v26.55h-11.156zm32.941 0h11.157v26.55h-11.157zm-164.71-332.78h11.157v26.55h-11.157zm32.942 0h11.157v26.55h-11.157zm32.94 0h11.158v26.55h-11.158zm32.942 0h11.157v26.55h-11.159zm32.942 0h11.157v26.55h-11.156zm32.941 0h11.157v26.55h-11.157z" fill="#fff"/>
  </g>
  <path d="M -50.782 -23.346 L -50.782 -22.196 L -54.402 -22.196 L -54.402 -23.346 L -50.782 -23.346 Z M -50.272 -25.916 L -50.272 -24.776 L -54.852 -24.776 L -54.852 -19.616 L -56.002 -19.616 L -56.002 -25.346 C -56.002 -25.419 -55.985 -25.493 -55.952 -25.566 C -55.925 -25.639 -55.885 -25.699 -55.832 -25.746 C -55.779 -25.799 -55.719 -25.843 -55.652 -25.876 C -55.579 -25.903 -55.502 -25.916 -55.422 -25.916 L -50.272 -25.916 ZM -47.531 -25.916 L -47.531 -19.616 L -48.681 -19.616 L -48.681 -24.776 L -49.711 -24.776 L -49.711 -25.916 L -47.531 -25.916 ZM -38.992 -23.286 L -38.992 -22.256 C -38.992 -21.996 -39.025 -21.753 -39.092 -21.526 C -39.159 -21.293 -39.252 -21.079 -39.372 -20.886 C -39.492 -20.686 -39.635 -20.509 -39.802 -20.356 C -39.962 -20.203 -40.142 -20.069 -40.342 -19.956 C -40.535 -19.849 -40.742 -19.766 -40.962 -19.706 C -41.182 -19.646 -41.405 -19.616 -41.632 -19.616 L -43.692 -19.616 C -43.925 -19.616 -44.152 -19.646 -44.372 -19.706 C -44.592 -19.766 -44.799 -19.849 -44.992 -19.956 C -45.185 -20.069 -45.365 -20.203 -45.532 -20.356 C -45.699 -20.509 -45.839 -20.686 -45.952 -20.886 C -46.072 -21.079 -46.165 -21.293 -46.232 -21.526 C -46.299 -21.753 -46.332 -21.996 -46.332 -22.256 L -46.332 -23.286 C -46.332 -23.673 -46.259 -24.026 -46.112 -24.346 C -45.965 -24.666 -45.772 -24.943 -45.532 -25.176 C -45.285 -25.409 -45.005 -25.593 -44.692 -25.726 C -44.372 -25.853 -44.039 -25.916 -43.692 -25.916 L -41.632 -25.916 C -41.405 -25.916 -41.182 -25.886 -40.962 -25.826 C -40.742 -25.773 -40.535 -25.689 -40.342 -25.576 C -40.142 -25.469 -39.962 -25.336 -39.802 -25.176 C -39.635 -25.023 -39.492 -24.849 -39.372 -24.656 C -39.252 -24.456 -39.159 -24.243 -39.092 -24.016 C -39.025 -23.783 -38.992 -23.539 -38.992 -23.286 Z M -40.152 -22.256 L -40.152 -23.286 C -40.152 -23.506 -40.192 -23.709 -40.272 -23.896 C -40.352 -24.083 -40.462 -24.239 -40.602 -24.366 C -40.735 -24.499 -40.892 -24.603 -41.072 -24.676 C -41.252 -24.743 -41.439 -24.776 -41.632 -24.776 L -43.692 -24.776 C -43.885 -24.776 -44.072 -24.743 -44.252 -24.676 C -44.432 -24.609 -44.592 -24.509 -44.732 -24.376 C -44.872 -24.249 -44.982 -24.093 -45.062 -23.906 C -45.149 -23.719 -45.192 -23.513 -45.192 -23.286 L -45.192 -22.256 C -45.192 -22.023 -45.149 -21.816 -45.062 -21.636 C -44.982 -21.449 -44.872 -21.289 -44.732 -21.156 C -44.599 -21.029 -44.442 -20.929 -44.262 -20.856 C -44.082 -20.789 -43.892 -20.756 -43.692 -20.756 L -41.632 -20.756 C -41.405 -20.756 -41.202 -20.793 -41.022 -20.866 C -40.835 -20.946 -40.679 -21.049 -40.552 -21.176 C -40.425 -21.309 -40.325 -21.469 -40.252 -21.656 C -40.185 -21.836 -40.152 -22.036 -40.152 -22.256 Z M -40.642 -24.116 C -40.602 -24.049 -40.572 -23.979 -40.552 -23.906 C -40.539 -23.833 -40.539 -23.759 -40.552 -23.686 C -40.572 -23.613 -40.602 -23.546 -40.642 -23.486 C -40.682 -23.419 -40.739 -23.366 -40.812 -23.326 L -43.892 -21.266 C -43.939 -21.226 -43.989 -21.199 -44.042 -21.186 C -44.095 -21.173 -44.152 -21.166 -44.212 -21.166 C -44.305 -21.166 -44.392 -21.186 -44.472 -21.226 C -44.559 -21.273 -44.629 -21.336 -44.682 -21.416 C -44.729 -21.483 -44.759 -21.553 -44.772 -21.626 C -44.785 -21.699 -44.785 -21.773 -44.772 -21.846 C -44.759 -21.919 -44.732 -21.986 -44.692 -22.046 C -44.652 -22.113 -44.599 -22.166 -44.532 -22.206 L -41.432 -24.266 C -41.372 -24.313 -41.302 -24.343 -41.222 -24.356 C -41.149 -24.369 -41.079 -24.369 -41.012 -24.356 C -40.939 -24.343 -40.869 -24.316 -40.802 -24.276 C -40.742 -24.236 -40.689 -24.183 -40.642 -24.116 Z" transform="matrix(1, 0, 0, 1, 0, 0)" style="fill: rgb(255, 255, 255); white-space: pre; filter: url(#drop-shadow-filter-0);"/>
  <path d="M -35.546 -19.594 C -35.546 -19.514 -35.563 -19.437 -35.596 -19.364 C -35.623 -19.297 -35.663 -19.237 -35.716 -19.184 C -35.769 -19.137 -35.829 -19.097 -35.896 -19.064 C -35.963 -19.037 -36.036 -19.024 -36.116 -19.024 C -36.196 -19.024 -36.269 -19.037 -36.336 -19.064 C -36.403 -19.097 -36.463 -19.137 -36.516 -19.184 C -36.569 -19.237 -36.609 -19.297 -36.636 -19.364 C -36.663 -19.437 -36.676 -19.514 -36.676 -19.594 C -36.676 -19.667 -36.663 -19.737 -36.636 -19.804 C -36.609 -19.877 -36.569 -19.937 -36.516 -19.984 C -36.463 -20.037 -36.403 -20.081 -36.336 -20.114 C -36.269 -20.141 -36.196 -20.154 -36.116 -20.154 C -36.036 -20.154 -35.963 -20.141 -35.896 -20.114 C -35.829 -20.081 -35.769 -20.037 -35.716 -19.984 C -35.663 -19.937 -35.623 -19.877 -35.596 -19.804 C -35.563 -19.737 -35.546 -19.667 -35.546 -19.594 ZM -28.241 -20.614 L -28.241 -20.394 C -28.241 -20.254 -28.265 -20.104 -28.311 -19.944 C -28.358 -19.784 -28.438 -19.634 -28.551 -19.494 C -28.658 -19.361 -28.801 -19.247 -28.981 -19.154 C -29.155 -19.061 -29.368 -19.014 -29.621 -19.014 L -33.961 -19.014 C -34.041 -19.014 -34.118 -19.027 -34.191 -19.054 C -34.258 -19.087 -34.318 -19.127 -34.371 -19.174 C -34.425 -19.227 -34.465 -19.291 -34.491 -19.364 C -34.525 -19.431 -34.541 -19.507 -34.541 -19.594 L -34.541 -24.744 C -34.541 -24.817 -34.525 -24.891 -34.491 -24.964 C -34.465 -25.037 -34.425 -25.097 -34.371 -25.144 C -34.318 -25.197 -34.258 -25.241 -34.191 -25.274 C -34.118 -25.301 -34.041 -25.314 -33.961 -25.314 L -30.141 -25.314 C -30.001 -25.314 -29.848 -25.291 -29.681 -25.244 C -29.521 -25.191 -29.371 -25.111 -29.231 -25.004 C -29.091 -24.891 -28.978 -24.747 -28.891 -24.574 C -28.798 -24.401 -28.751 -24.184 -28.751 -23.924 L -28.751 -23.714 C -28.751 -23.507 -28.785 -23.291 -28.851 -23.064 C -28.918 -22.831 -29.025 -22.607 -29.171 -22.394 C -29.045 -22.321 -28.925 -22.227 -28.811 -22.114 C -28.698 -22.001 -28.598 -21.871 -28.511 -21.724 C -28.431 -21.577 -28.365 -21.411 -28.311 -21.224 C -28.265 -21.044 -28.241 -20.841 -28.241 -20.614 Z M -29.381 -20.404 L -29.381 -20.614 C -29.381 -20.767 -29.405 -20.904 -29.451 -21.024 C -29.498 -21.137 -29.565 -21.237 -29.651 -21.324 C -29.738 -21.411 -29.841 -21.477 -29.961 -21.524 C -30.081 -21.571 -30.215 -21.594 -30.361 -21.594 L -32.941 -21.594 L -32.941 -22.744 L -30.871 -22.744 C -30.725 -22.744 -30.591 -22.764 -30.471 -22.804 C -30.351 -22.851 -30.248 -22.917 -30.161 -23.004 C -30.081 -23.091 -30.018 -23.194 -29.971 -23.314 C -29.925 -23.427 -29.901 -23.561 -29.901 -23.714 L -29.901 -23.924 C -29.901 -24.091 -29.981 -24.174 -30.141 -24.174 L -33.391 -24.174 L -33.391 -20.154 L -29.621 -20.154 C -29.601 -20.154 -29.578 -20.157 -29.551 -20.164 C -29.518 -20.164 -29.491 -20.171 -29.471 -20.184 C -29.445 -20.204 -29.425 -20.231 -29.411 -20.264 C -29.391 -20.297 -29.381 -20.344 -29.381 -20.404 ZM -21.327 -25.314 L -21.327 -23.204 C -21.327 -22.944 -21.36 -22.711 -21.427 -22.504 C -21.493 -22.304 -21.58 -22.124 -21.687 -21.964 C -21.8 -21.811 -21.927 -21.677 -22.067 -21.564 C -22.213 -21.451 -22.363 -21.357 -22.517 -21.284 C -22.677 -21.217 -22.837 -21.167 -22.997 -21.134 C -23.157 -21.101 -23.307 -21.084 -23.447 -21.084 L -23.907 -21.084 L -23.907 -19.014 L -25.057 -19.014 L -25.057 -21.084 L -25.517 -21.084 C -25.657 -21.084 -25.807 -21.101 -25.967 -21.134 C -26.127 -21.167 -26.283 -21.217 -26.437 -21.284 C -26.597 -21.357 -26.747 -21.451 -26.887 -21.564 C -27.033 -21.677 -27.16 -21.811 -27.267 -21.964 C -27.38 -22.124 -27.47 -22.307 -27.537 -22.514 C -27.603 -22.721 -27.637 -22.951 -27.637 -23.204 L -27.637 -25.314 L -26.487 -25.314 L -26.487 -23.204 C -26.487 -23.057 -26.463 -22.924 -26.417 -22.804 C -26.37 -22.684 -26.303 -22.581 -26.217 -22.494 C -26.137 -22.414 -26.033 -22.351 -25.907 -22.304 C -25.787 -22.257 -25.653 -22.234 -25.507 -22.234 L -23.447 -22.234 C -23.333 -22.254 -23.22 -22.277 -23.107 -22.304 C -22.993 -22.331 -22.89 -22.377 -22.797 -22.444 C -22.703 -22.511 -22.627 -22.604 -22.567 -22.724 C -22.507 -22.844 -22.477 -23.004 -22.477 -23.204 L -22.477 -25.314 L -21.327 -25.314 Z" transform="matrix(1, 0, 0, 1, 0, 0)" style="fill: rgb(82, 88, 100); white-space: pre;"/>
</svg>